<?xml version="1.0" standalone="no"?>
<!DOCTYPE svg PUBLIC "-//W3C//DTD SVG 1.1//EN" "http://www.w3.org/Graphics/SVG/1.1/DTD/svg11.dtd" >
<!--
2013-9-30: Created.
-->
<svg>
<metadata>
Created by iconfont
</metadata>
<defs>

<font id="iconfont" horiz-adv-x="1024" >
  <font-face
    font-family="iconfont"
    font-weight="500"
    font-stretch="normal"
    units-per-em="1024"
    ascent="896"
    descent="-128"
  />
    <missing-glyph />
    
    <glyph glyph-name="movie" unicode="&#59352;" d="M768 725.333333l85.333333-170.666667-128 0-85.333333 170.666667-85.333333 0 85.333333-170.666667-128 0-85.333333 170.666667-85.333333 0 85.333333-170.666667-128 0-85.333333 170.666667-42.666667 0c-47.146667 0-84.906667-38.186667-84.906667-85.333333l-0.426667-512c0-47.146667 38.186667-85.333333 85.333333-85.333333l682.666667 0c47.146667 0 85.333333 38.186667 85.333333 85.333333l0 597.333333-170.666667 0z"  horiz-adv-x="1024" />

    
    <glyph glyph-name="share-fill" unicode="&#60490;" d="M579.242667 159.104l-218.026667 118.912a149.333333 149.333333 0 1 0 0 211.968l218.026667 118.912a149.333333 149.333333 0 1 0 40.874666-74.88l-218.026666-118.912a149.930667 149.930667 0 0 0 0-62.208l218.026666-118.912a149.333333 149.333333 0 1 0-40.874666-74.88z"  horiz-adv-x="1024" />

    
    <glyph glyph-name="share-line" unicode="&#60497;" d="M559.786667 169.685333l-179.157334 97.706667a170.666667 170.666667 0 1 0 0 233.173333l179.2 97.706667a170.666667 170.666667 0 1 0 40.917334-74.88l-179.2-97.706667a171.008 171.008 0 0 0 0-83.370666l179.157333-97.706667a170.666667 170.666667 0 1 0-40.917333-74.88zM256 298.666667a85.333333 85.333333 0 1 1 0 170.666666 85.333333 85.333333 0 0 1 0-170.666666z m469.333333 256a85.333333 85.333333 0 1 1 0 170.666666 85.333333 85.333333 0 0 1 0-170.666666z m0-512a85.333333 85.333333 0 1 1 0 170.666666 85.333333 85.333333 0 0 1 0-170.666666z"  horiz-adv-x="1024" />

    
    <glyph glyph-name="image-fill" unicode="&#60073;" d="M853.333333 682.666667H170.666667v-597.333334l396.458666 396.544a42.666667 42.666667 0 0 0 60.330667 0L853.333333 255.573333V682.666667zM85.333333 725.632A42.666667 42.666667 0 0 0 127.658667 768h768.682666c23.381333 0 42.325333-18.986667 42.325334-42.368v-683.264a42.666667 42.666667 0 0 0-42.325334-42.368H127.658667A42.368 42.368 0 0 0 85.333333 42.368V725.632zM341.333333 426.666667a85.333333 85.333333 0 1 0 0 170.666666 85.333333 85.333333 0 0 0 0-170.666666z"  horiz-adv-x="1024" />

    
    <glyph glyph-name="redo" unicode="&#59319;" d="M0 320c0-152.928 67.04-290.176 173.344-384l84.672 96c-79.712 70.368-130.016 173.312-130.016 288 0 212.064 171.936 384 384 384 106.048 0 202.048-42.976 271.52-112.48l-143.52-143.52 384 0 0 384-149.984-149.984c-92.64 92.672-220.64 149.984-362.016 149.984-282.784 0-512-229.216-512-512z"  horiz-adv-x="1024" />

    
    <glyph glyph-name="undo" unicode="&#59428;" d="M512 832c-141.376 0-269.376-57.312-362.016-149.984l-149.952 149.984 0-384 384 0-143.52 143.52c69.504 69.504 165.504 112.48 271.52 112.48 212.064 0 384-171.936 384-384 0-114.688-50.304-217.632-130.016-288l84.672-96c106.304 93.824 173.344 231.072 173.344 384 0 282.784-229.216 512-512 512z"  horiz-adv-x="1025" />

    
    <glyph glyph-name="hr" unicode="&#58881;" d="M213.333333 341.333333a42.666667 42.666667 0 0 0 0 85.333334h597.333334a42.666667 42.666667 0 0 0 0-85.333334H213.333333z"  horiz-adv-x="1024" />

    
    <glyph glyph-name="code-box-line" unicode="&#59101;" d="M128 768h768a42.666667 42.666667 0 0 0 42.666667-42.666667v-682.666666a42.666667 42.666667 0 0 0-42.666667-42.666667H128a42.666667 42.666667 0 0 0-42.666667 42.666667V725.333333a42.666667 42.666667 0 0 0 42.666667 42.666667z m42.666667-85.333333v-597.333334h682.666666V682.666667H170.666667z m682.666666-298.666667l-150.869333-150.869333-60.330667 60.373333L732.672 384 642.133333 474.496l60.330667 60.373333L853.333333 384zM291.328 384l90.538667-90.496-60.330667-60.373333L170.666667 384l150.869333 150.869333L381.866667 474.453333 291.328 384z m188.416-213.333333H388.949333l155.306667 426.666666h90.794667l-155.306667-426.666666z"  horiz-adv-x="1024" />

    
    <glyph glyph-name="code-line" unicode="&#59103;" d="M981.333333 384l-301.696-301.696-60.330666 60.330667L860.672 384l-241.365333 241.365333 60.330666 60.330667L981.333333 384zM163.328 384l241.365333-241.365333-60.330666-60.330667L42.666667 384l301.696 301.696 60.330666-60.330667L163.328 384z"  horiz-adv-x="1024" />

    
    <glyph glyph-name="bold" unicode="&#59429;" d="M341.333333 426.666667h192a106.666667 106.666667 0 1 1 0 213.333333H341.333333v-213.333333z m426.666667-192a192 192 0 0 0-192-192H256V725.333333h277.333333a192 192 0 0 0 138.922667-324.522666A191.914667 191.914667 0 0 0 768 234.666667zM341.333333 341.333333v-213.333333h234.666667a106.666667 106.666667 0 1 1 0 213.333333H341.333333z"  horiz-adv-x="1024" />

    
    <glyph glyph-name="double-quotes-r" unicode="&#59435;" d="M828.458667 611.029333C872.405333 564.352 896 512 896 427.136c0-149.333333-104.832-283.178667-257.28-349.354667l-38.101333 58.794667c142.293333 76.970667 170.112 176.853333 181.205333 239.829333-22.912-11.861333-52.906667-16-82.304-13.269333-76.970667 7.125333-137.642667 70.314667-137.642667 148.864a149.333333 149.333333 0 0 0 149.333334 149.333333c45.781333 0 89.557333-20.906667 117.248-50.304z m-426.666667 0C445.738667 564.352 469.333333 512 469.333333 427.136c0-149.333333-104.832-283.178667-257.28-349.354667l-38.101333 58.794667c142.293333 76.970667 170.112 176.853333 181.205333 239.829333-22.912-11.861333-52.906667-16-82.304-13.269333C195.882667 370.261333 135.253333 433.450667 135.253333 512a149.333333 149.333333 0 0 0 149.333334 149.333333c45.781333 0 89.557333-20.906667 117.248-50.304z"  horiz-adv-x="1024" />

    
    <glyph glyph-name="italic" unicode="&#59463;" d="M640 42.666667H298.666667v85.333333h124.885333l90.282667 512H384V725.333333h341.333333v-85.333333h-124.885333l-90.282667-512H640z"  horiz-adv-x="1024" />

    
    <glyph glyph-name="list-ordered" unicode="&#59466;" d="M341.333333 725.333333h554.666667v-85.333333H341.333333V725.333333zM213.333333 768v-128h42.666667v-42.666667H128V640h42.666667V725.333333H128V768h85.333333zM128 298.666667v106.666666h85.333333V426.666667H128v42.666666h128v-106.666666H170.666667v-21.333334h85.333333v-42.666666H128z m85.333333-234.666667H128v42.666667h85.333333V128H128v42.666667h128v-170.666667H128v42.666667h85.333333v21.333333zM341.333333 426.666667h554.666667v-85.333334H341.333333v85.333334z m0-298.666667h554.666667v-85.333333H341.333333v85.333333z"  horiz-adv-x="1024" />

    
    <glyph glyph-name="list-unordered" unicode="&#59467;" d="M341.333333 725.333333h554.666667v-85.333333H341.333333V725.333333zM192 618.666667a64 64 0 1 0 0 128 64 64 0 0 0 0-128z m0-298.666667a64 64 0 1 0 0 128 64 64 0 0 0 0-128z m0-294.4a64 64 0 1 0 0 128 64 64 0 0 0 0-128zM341.333333 426.666667h554.666667v-85.333334H341.333333v85.333334z m0-298.666667h554.666667v-85.333333H341.333333v85.333333z"  horiz-adv-x="1024" />

    
    <glyph glyph-name="paragraph" unicode="&#59484;" d="M512 640v-640h-85.333333v213.333333a256 256 0 1 0 0 512h426.666666v-85.333333h-128v-640h-85.333333V640h-128z m-85.333333 0a170.666667 170.666667 0 1 1 0-341.333333V640z"  horiz-adv-x="1024" />

    
    <glyph glyph-name="strikethrough" unicode="&#59498;" d="M731.904 298.666667c9.813333-22.016 14.762667-46.506667 14.762667-73.386667 0-57.258667-22.357333-102.058667-67.029334-134.272C634.88 58.794667 573.141333 42.666667 494.336 42.666667c-69.973333 0-139.221333 16.256-207.786667 48.810666V187.733333c64.853333-37.418667 131.2-56.149333 199.082667-56.149333 108.842667 0 163.413333 31.232 163.797333 93.738667a94.293333 94.293333 0 0 1-27.648 68.394666l-5.12 4.992H128v85.333334h768v-85.333334h-164.096z m-173.994667 128H325.504a174.336 174.336 0 0 0-20.522667 22.272C286.549333 472.746667 277.333333 501.504 277.333333 535.381333c0 52.736 19.882667 97.578667 59.605334 134.528C376.746667 706.858667 438.229333 725.333333 521.472 725.333333c62.762667 0 122.837333-13.994667 180.138667-41.984v-91.818666c-51.2 29.312-107.306667 43.946667-168.362667 43.946666-105.813333 0-158.677333-33.365333-158.677333-100.096 0-17.92 9.301333-33.536 27.904-46.890666 18.602667-13.354667 41.557333-23.978667 68.821333-32 26.453333-7.68 55.338667-17.664 86.613333-29.824z"  horiz-adv-x="1024" />

    
    <glyph glyph-name="underline" unicode="&#59512;" d="M341.333333 768v-384a170.666667 170.666667 0 1 1 341.333334 0V768h85.333333v-384a256 256 0 1 0-512 0V768h85.333333zM170.666667 42.666667h682.666666v-85.333334H170.666667v85.333334z"  horiz-adv-x="1024" />

    
    <glyph glyph-name="home" unicode="&#59334;" d="M946.5 391L560.1 777.2l-25.9 25.9c-12.3 12.2-32.1 12.2-44.4 0L77.5 391c-12.3-12.3-18.9-28.6-18.8-46 0.4-35.2 29.7-63.3 64.9-63.3h42.5V-44h691.8V281.70000000000005h43.4c17.1 0 33.2 6.7 45.3 18.8 12.1 12.1 18.7 28.2 18.7 45.3 0 17-6.7 33.1-18.8 45.2zM568 28H456V232h112v-204z m217.9 325.7V28H632V256c0 22.1-17.9 40-40 40H432c-22.1 0-40-17.9-40-40v-228H238.1V353.70000000000005h-96l370 369.7 23.1-23.1L882 353.70000000000005h-96.1z"  horiz-adv-x="1024" />

    
    <glyph glyph-name="home-solid" unicode="&#59496;" d="M946.5 391L534.6 802.6c-12.5 12.5-32.7 12.5-45.2 0L77.5 391c-12-12-18.8-28.3-18.8-45.3 0-35.3 28.7-64 64-64h43.4V-12c0-17.7 14.3-32 32-32H448V180h112v-224h265.9c17.7 0 32 14.3 32 32V281.70000000000005h43.4c17 0 33.3 6.7 45.3 18.8 24.9 25 24.9 65.5-0.1 90.5z"  horiz-adv-x="1024" />

    
    <glyph glyph-name="Sticker" unicode="&#59100;" d="M757.333333 768A138.666667 138.666667 0 0 0 896 629.333333v-293.504a96 96 0 0 0-28.117333-67.84l-239.829334-239.872a96 96 0 0 0-67.882666-28.117333H266.666667A138.666667 138.666667 0 0 0 128 138.666667V629.333333A138.666667 138.666667 0 0 0 266.666667 768h490.666666z m0-64H266.666667A74.666667 74.666667 0 0 1 192 629.333333v-490.666666c0-41.216 33.450667-74.666667 74.666667-74.666667H554.666667v130.730667a284.032 284.032 0 0 0-28.714667-2.816L512 191.573333a270.250667 270.250667 0 0 0-156.928 48.64 32 32 0 1 0 36.437333 52.650667c36.053333-24.917333 75.946667-37.290667 120.490667-37.290667 19.712 0 38.528 2.432 56.490667 7.296a138.538667 138.538667 0 0 0 115.754666 78.165334l9.088 0.298666H832V629.333333a74.666667 74.666667 0 0 1-74.666667 74.666667z m29.397334-426.666667h-93.354667c-39.168 0-71.296-30.165333-74.410667-68.565333l-0.256-6.101333-0.042666-93.397334 168.064 168.064zM384 565.290667a53.333333 53.333333 0 1 0 0-106.624A53.333333 53.333333 0 0 0 384 565.333333z m256 0a53.333333 53.333333 0 1 0 0-106.624 53.333333 53.333333 0 0 0 0 106.624z"  horiz-adv-x="1024" />

    
    <glyph glyph-name="filter-solid" unicode="&#59495;" d="M349 58c0-17.7 14.2-32 31.8-32h262.4c17.6 0 31.8 14.3 31.8 32V254H349v-196zM880.1 742H143.9c-24.5 0-39.8-26.7-27.5-48l221.3-376h348.8l221.3 376c12.1 21.3-3.2 48-27.7 48z"  horiz-adv-x="1024" />

    
    <glyph glyph-name="filter" unicode="&#59335;" d="M880.1 742H143.9c-24.5 0-39.8-26.7-27.5-48L349 298.6V58c0-17.7 14.2-32 31.8-32h262.4c17.6 0 31.8 14.3 31.8 32V298.6L907.7 694c12.2 21.3-3.1 48-27.6 48zM603.4 98H420.6V254h182.9v-156z m9.6 236.6l-9.5-16.6h-183l-9.5 16.6L212.7 670h598.6L613 334.6z"  horiz-adv-x="1024" />

    
    <glyph glyph-name="reply" unicode="&#58894;" d="M932.990217 41.44006400000001c-9.330506 0-18.23634 4.955872-23.060205 13.464663-106.641809 188.493002-245.272169 210.044854-441.587324 211.501018l0-177.253006c0-10.339486-5.991458-19.695574-15.347546-24.043602-9.383718-4.344958-20.408819-2.836605-28.284183 3.818979L73.884754 365.81073200000003c-5.829775 4.955872-9.247618 12.139481-9.382695 19.800975-0.130983 7.66047 3.049452 14.94948 8.696056 20.093641L424.02125 723.79087c7.795547 7.052626 18.952654 8.827039 28.54922 4.587482 9.56996-4.242627 15.771195-13.760398 15.771195-24.227798l0-150.827147c404.952962-19.218714 489.937518-476.072743 490.75821-480.791208 2.225691-12.69923-5.012154-25.184589-17.151635-29.528524C938.981674 41.94250699999998 935.957805 41.44006400000001 932.990217 41.44006400000001L932.990217 41.44006400000001zM131.22367 386.725064L415.328263 146.30234299999995 415.328263 293.018869c0 14.660908 11.873422 26.508747 26.508747 26.508747 169.434947 0 306.742173-9.968026 417.941787-113.000634-11.348466 25.210172-25.1324 51.928696-41.777499 78.516238-89.673345 143.218866-216.220506 215.849046-376.137683 215.849046-14.634302 0-26.508747 11.874445-26.508747 26.504654L415.354869 644.295328 131.22367 386.725064 131.22367 386.725064zM131.22367 386.725064"  horiz-adv-x="1024" />

    
    <glyph glyph-name="a" unicode="&#59013;" d="M446.24439 377.62173199999995h132.902916l-66.451458 148.11027zM512 758.980323c-207.095685 0-374.980323-167.883615-374.980323-374.980323 0-207.095685 167.884638-374.980323 374.980323-374.980323 207.096708 0 374.980323 167.884638 374.980323 374.980323-0.001023 207.095685-167.883615 374.980323-374.980323 374.980323z m172.97661-549.125549c-14.07046-6.310729-30.547737-0.021489-36.848233 14.021342l-43.964304 97.986685H421.22967l-43.962257-97.986685c-4.63967-10.340509-14.805194-16.47216-25.450649-16.47216-3.811816 0-7.689123 0.783853-11.396561 2.450818-14.048971 6.300496-20.326954 22.799262-14.021341 36.848233L377.4864 360.57242799999995l0.025583 0.058328L487.261573 605.255173a27.871791 27.871791 0 0 0 25.434275 16.46602c10.983145 0 20.941961-6.446829 25.434276-16.46602l109.745496-244.605997 0.039909-0.089028 51.083446-113.856117c6.304589-14.049994 0.026606-30.549783-14.022365-36.849257z"  horiz-adv-x="1024" />

    
    <glyph glyph-name="q" unicode="&#59045;" d="M642.468672 395.102628c0 37.04287-9.41421 157.892675-130.468672 157.892675-96.290996 0-130.468672-85.034876-130.468672-157.892675 0-78.588188 40.317378-157.892675 130.468672-157.892675s130.468672 79.304487 130.468672 157.892675zM512 758.982312c-207.112621 0-374.931148-167.920855-374.931148-374.931148S304.989707 9.120015999999964 512 9.120015999999964c207.112621 0 374.931148 167.920855 374.931148 374.931148 0.102328 207.010293-167.818527 374.931148-374.931148 374.931148z m142.850405-528.526031c18.726092-3.78615 29.675227-23.433197 23.126211-41.340662l-2.660537-7.265314c-5.730389-15.656241-22.819227-24.047167-38.782453-19.033077l-67.229739 21.386629c-2.762866 0.920955-5.321075 2.148896-7.674627 3.683822-15.553912-4.195463-32.131108-6.446687-49.62926-6.446688-109.593684 0-186.237634 87.797742-186.237634 213.661637 0 127.808134 74.802039 213.661637 186.237634 213.661637 113.072849 0 186.237634-83.806935 186.237634-213.661637 0-67.127411-21.898271-123.510343-58.941142-161.474168l15.553913-3.172179z"  horiz-adv-x="1024" />

    
    <glyph glyph-name="search" unicode="&#59415;" d="M477.013333 810.666667C260.676267 810.666667 85.333333 635.323733 85.333333 419.003733c0-216.32 175.342933-391.662933 391.68-391.662933 216.285867 0 391.645867 175.36 391.645867 391.68C868.6592 635.3066670000001 693.2992 810.666667 476.9792 810.666667z m0-68.266667c178.5856 0 323.3792-144.776533 323.3792-323.396267 0-178.602667-144.7936-323.396267-323.396266-323.396266C298.376533 95.60746700000004 153.6 240.401067 153.6 419.0208 153.6 597.6064 298.376533 742.4 477.013333 742.4zM713.557333 182.44266700000003a34.133333 34.133333 0 0 0 46.08 1.9968l2.184534-1.9968 166.843733-166.843734a34.133333 34.133333 0 0 0-46.097067-50.261333l-2.184533 1.9968-166.843733 166.843733a34.133333 34.133333 0 0 0 0 48.264534zM307.2 349.866667a34.133333 34.133333 0 0 0 30.344533-18.500267l-1.621333 2.423467c38.126933-58.7776 95.8976-92.8256 165.512533-94.72l6.161067-0.085334v-68.266666c-93.866667 0-173.687467 44.373333-225.3824 120.541866l-3.566933 5.358934 0.170666 0.119466A34.133333 34.133333 0 0 0 307.2 349.866667z"  horiz-adv-x="1024" />

    
    <glyph glyph-name="setting" unicode="&#59278;" d="M924.8 270.29999999999995l-65.5 56c3.1 19 4.7 38.4 4.7 57.8s-1.6 38.8-4.7 57.8l65.5 56c10.1 8.6 13.8 22.6 9.3 35.2l-0.9 2.6c-18.1 50.5-44.9 96.9-79.7 137.9l-1.8 2.1c-8.6 10.1-22.5 13.9-35.1 9.5l-81.3-28.9c-30 24.6-63.5 44-99.7 57.6l-15.7 85c-2.4 13.1-12.7 23.3-25.8 25.7l-2.7 0.5c-52.1 9.4-106.9 9.4-159 0l-2.7-0.5c-13.1-2.4-23.4-12.6-25.8-25.7l-15.8-85.4c-35.9-13.6-69.2-32.9-99-57.4l-81.9 29.1c-12.5 4.4-26.5 0.7-35.1-9.5l-1.8-2.1c-34.8-41.1-61.6-87.5-79.7-137.9l-0.9-2.6c-4.5-12.5-0.8-26.5 9.3-35.2l66.3-56.6c-3.1-18.8-4.6-38-4.6-57.1 0-19.2 1.5-38.4 4.6-57.1L99 270.5c-10.1-8.6-13.8-22.6-9.3-35.2l0.9-2.6c18.1-50.4 44.9-96.9 79.7-137.9l1.8-2.1c8.6-10.1 22.5-13.9 35.1-9.5l81.9 29.1c29.8-24.5 63.1-43.9 99-57.4l15.8-85.4c2.4-13.1 12.7-23.3 25.8-25.7l2.7-0.5c26.1-4.7 52.8-7.1 79.5-7.1 26.7 0 53.5 2.4 79.5 7.1l2.7 0.5c13.1 2.4 23.4 12.6 25.8 25.7l15.7 85c36.2 13.6 69.7 32.9 99.7 57.6l81.3-28.9c12.5-4.4 26.5-0.7 35.1 9.5l1.8 2.1c34.8 41.1 61.6 87.5 79.7 137.9l0.9 2.6c4.5 12.3 0.8 26.3-9.3 35zM788.3 430.1c2.5-15.1 3.8-30.6 3.8-46.1s-1.3-31-3.8-46.1l-6.6-40.1 74.7-63.9c-11.3-26.1-25.6-50.7-42.6-73.6L721 193.20000000000005l-31.4-25.8c-23.9-19.6-50.5-35-79.3-45.8l-38.1-14.3-17.9-97c-28.1-3.2-56.8-3.2-85 0l-17.9 97.2-37.8 14.5c-28.5 10.8-55 26.2-78.7 45.7l-31.4 25.9-93.4-33.2c-17 22.9-31.2 47.6-42.6 73.6l75.5 64.5-6.5 40c-2.4 14.9-3.7 30.3-3.7 45.5 0 15.3 1.2 30.6 3.7 45.5l6.5 40-75.5 64.5c11.3 26.1 25.6 50.7 42.6 73.6l93.4-33.2 31.4 25.9c23.7 19.5 50.2 34.9 78.7 45.7l37.9 14.3 17.9 97.2c28.1 3.2 56.8 3.2 85 0l17.9-97 38.1-14.3c28.7-10.8 55.4-26.2 79.3-45.8l31.4-25.8 92.8 32.9c17-22.9 31.2-47.6 42.6-73.6L781.8 470l6.5-39.9zM512 570c-97.2 0-176-78.8-176-176s78.8-176 176-176 176 78.8 176 176-78.8 176-176 176z m79.2-255.2C570 293.70000000000005 541.9 282 512 282c-29.9 0-58 11.7-79.2 32.8C411.7 336 400 364.1 400 394c0 29.9 11.7 58 32.8 79.2C454 494.4 482.1 506 512 506c29.9 0 58-11.6 79.2-32.8C612.3 452 624 423.9 624 394c0-29.9-11.7-58-32.8-79.2z"  horiz-adv-x="1024" />

    
    <glyph glyph-name="setting-solid" unicode="&#59505;" d="M512.5 505.4c-29.9 0-57.9-11.6-79.1-32.8-21.1-21.2-32.8-49.2-32.8-79.1 0-29.9 11.7-57.9 32.8-79.1 21.2-21.1 49.2-32.8 79.1-32.8 29.9 0 57.9 11.7 79.1 32.8 21.1 21.2 32.8 49.2 32.8 79.1 0 29.9-11.7 57.9-32.8 79.1-21.2 21.2-49.2 32.8-79.1 32.8zM924.8 269.9l-65.4 55.9c3.1 19 4.7 38.4 4.7 57.7s-1.6 38.8-4.7 57.7l65.4 55.9c10.1 8.6 13.8 22.6 9.3 35.2l-0.9 2.6c-18.1 50.4-44.8 96.8-79.6 137.7l-1.8 2.1c-8.6 10.1-22.5 13.9-35.1 9.5l-81.2-28.9c-30 24.6-63.4 44-99.6 57.5l-15.7 84.9c-2.4 13.1-12.7 23.3-25.8 25.7l-2.7 0.5c-52 9.4-106.8 9.4-158.8 0l-2.7-0.5c-13.1-2.4-23.4-12.6-25.8-25.7l-15.8-85.3c-35.9-13.6-69.1-32.9-98.9-57.3l-81.8 29.1c-12.5 4.4-26.5 0.7-35.1-9.5l-1.8-2.1c-34.8-41.1-61.5-87.4-79.6-137.7l-0.9-2.6c-4.5-12.5-0.8-26.5 9.3-35.2l66.2-56.5c-3.1-18.8-4.6-38-4.6-57 0-19.2 1.5-38.4 4.6-57l-66-56.5c-10.1-8.6-13.8-22.6-9.3-35.2l0.9-2.6c18.1-50.3 44.8-96.8 79.6-137.7l1.8-2.1c8.6-10.1 22.5-13.9 35.1-9.5l81.8 29.1c29.8-24.5 63-43.9 98.9-57.3l15.8-85.3c2.4-13.1 12.7-23.3 25.8-25.7l2.7-0.5c26.1-4.7 52.7-7.1 79.4-7.1 26.7 0 53.4 2.4 79.4 7.1l2.7 0.5c13.1 2.4 23.4 12.6 25.8 25.7l15.7 84.9c36.2 13.6 69.6 32.9 99.6 57.5l81.2-28.9c12.5-4.4 26.5-0.7 35.1 9.5l1.8 2.1c34.8 41.1 61.5 87.4 79.6 137.7l0.9 2.6c4.3 12.4 0.6 26.3-9.5 35z m-412.3-52.2c-97.1 0-175.8 78.7-175.8 175.8s78.7 175.8 175.8 175.8 175.8-78.7 175.8-175.8-78.7-175.8-175.8-175.8z"  horiz-adv-x="1024" />

    
    <glyph glyph-name="question" unicode="&#59266;" d="M512 832C264.6 832 64 631.4 64 384s200.6-448 448-448 448 200.6 448 448S759.4 832 512 832z m0-820c-205.4 0-372 166.6-372 372s166.6 372 372 372 372-166.6 372-372-166.6-372-372-372zM623.6 579.3C593.6 605.6 554 620 512 620s-81.6-14.5-111.6-40.7C369.2 552 352 515.3 352 476v-7.6c0-4.4 3.6-8 8-8h48c4.4 0 8 3.6 8 8V476c0 44.1 43.1 80 96 80s96-35.9 96-80c0-31.1-22-59.6-56.1-72.7-21.2-8.1-39.2-22.3-52.1-40.9-13.1-19-19.9-41.8-19.9-64.9V276c0-4.4 3.6-8 8-8h48c4.4 0 8 3.6 8 8v22.7c0 19.7 12.4 37.7 30.9 44.8 59 22.7 97.1 74.7 97.1 132.5 0.1 39.3-17.1 76-48.3 103.3zM512 164m-40 0a40 40 0 1 1 80 0 40 40 0 1 1-80 0Z"  horiz-adv-x="1024" />

    
    <glyph glyph-name="question-solid" unicode="&#59462;" d="M512 832C264.6 832 64 631.4 64 384s200.6-448 448-448 448 200.6 448 448S759.4 832 512 832z m0-708c-22.1 0-40 17.9-40 40s17.9 40 40 40 40-17.9 40-40-17.9-40-40-40z m62.9 219.5c-18.5-7.1-30.9-25.1-30.9-44.8V276c0-4.4-3.6-8-8-8h-48c-4.4 0-8 3.6-8 8v21.5c0 23.1 6.7 45.9 19.9 64.9 12.9 18.6 30.9 32.8 52.1 40.9 34 13.1 56 41.6 56 72.7 0 44.1-43.1 80-96 80s-96-35.9-96-80v-7.6c0-4.4-3.6-8-8-8h-48c-4.4 0-8 3.6-8 8V476c0 39.3 17.2 76 48.4 103.3C430.4 605.6 470 620 512 620s81.6-14.5 111.6-40.7C654.8 552 672 515.3 672 476c0-57.8-38.1-109.8-97.1-132.5z"  horiz-adv-x="1024" />

    
    <glyph glyph-name="bell" unicode="&#59332;" d="M816 128h-24V468c0 141.1-104.3 257.7-240 277.1V784c0 22.1-17.9 40-40 40s-40-17.9-40-40v-38.9c-135.7-19.4-240-136-240-277.1v-340h-24c-17.7 0-32-14.3-32-32v-32c0-4.4 3.6-8 8-8h216c0-61.8 50.2-112 112-112s112 50.2 112 112h216c4.4 0 8 3.6 8 8v32c0 17.7-14.3 32-32 32zM512 8c-26.5 0-48 21.5-48 48h96c0-26.5-21.5-48-48-48zM304 128V468c0 55.6 21.6 107.8 60.9 147.1S456.4 676 512 676c55.6 0 107.8-21.6 147.1-60.9S720 523.6 720 468v-340H304z"  horiz-adv-x="1024" />

    
    <glyph glyph-name="bell-solid" unicode="&#59494;" d="M816 128h-24V468c0 141.1-104.3 257.8-240 277.2V784c0 22.1-17.9 40-40 40s-40-17.9-40-40v-38.8C336.3 725.8 232 609.1 232 468v-340h-24c-17.7 0-32-14.3-32-32v-32c0-4.4 3.6-8 8-8h216c0-61.8 50.2-112 112-112s112 50.2 112 112h216c4.4 0 8 3.6 8 8v32c0 17.7-14.3 32-32 32zM512 8c-26.5 0-48 21.5-48 48h96c0-26.5-21.5-48-48-48z"  horiz-adv-x="1024" />

    
    <glyph glyph-name="menu" unicode="&#58880;" d="M128 597.333333h768a42.666667 42.666667 0 0 1 0 85.333334H128a42.666667 42.666667 0 0 1 0-85.333334z m768-170.666666H128a42.666667 42.666667 0 0 1 0-85.333334h768a42.666667 42.666667 0 0 1 0 85.333334z m0-256H128a42.666667 42.666667 0 0 1 0-85.333334h768a42.666667 42.666667 0 0 1 0 85.333334z"  horiz-adv-x="1024" />

    
    <glyph glyph-name="sound" unicode="&#58985;" d="M553.970392 814.477288c-12.322653 5.811356-26.929326 4.206812-37.645388-4.069689-0.49221-0.411369-52.619428-40.814568-110.134353-82.214467C306.086745 656.211728 276.919449 644.2175560000001 271.026228 642.3183L159.633209 642.3183c-29.296233 0-54.983265-11.856026-72.42245-33.43653-15.009855-18.527982-22.946618-42.829458-22.946618-70.25918l0-305.281915c0-57.171094 47.562249-103.699804 106.075921-103.699804l43.954071 0c19.624966 0 35.563984 15.555278 35.563984 34.749432 0 19.156292-15.939017 34.69008-35.563984 34.69008l-43.954071 0c-19.252483 0-34.944883 15.398712-34.944883 34.259268L135.395178 538.62259c0 12.795421 3.154853 34.219359 24.239054 34.219359l113.75788 0c18.21485 0 46.192042 7.337105 168.155814 94.560656 21.785166 15.534811 42.989093 31.187303 61.380976 44.902676L502.928902 64.529945c-14.814404 12.228509-31.335682 25.64917-48.220235 38.993083-111.51684 88.221274-118.65133 95.558379-137.359414 95.558379l0 0c-19.627013 0-35.56603-15.534811-35.56603-34.69008 0-18.195408 14.363126-33.103956 32.578999-34.591843 5.184069-1.779529 11.68718-13.421684 101.990882-85.343737 51.671846-41.126676 98.069573-81.293491 98.524944-81.669044 6.642281-5.770424 15.063067-8.763594 23.657816-8.763594 4.897543 0 9.875928 0.978281 14.518668 3.052522 12.785188 5.634324 21.005406 18.038842 21.005406 31.696909L574.059939 783.211191C574.058916 796.574546 566.252113 808.725284 553.970392 814.477288L553.970392 814.477288 553.970392 814.477288 553.970392 814.477288zM919.678538 257.719922c24.564465 38.642089 37.516452 83.32987 37.516452 129.170918 0 45.880957-12.989849 90.568738-37.516452 129.192408-23.942295 37.643342-57.802474 68.047816-97.902774 87.847767-17.505699 8.648984-38.917358 1.820462-47.798633-15.280008-8.882298-17.140379-1.87265-38.015825 15.643282-46.663786 59.508325-29.407774 96.443539-88.828095 96.443539-155.097404 0-66.269309-36.935214-125.709073-96.40363-155.076938-17.516956-8.685823-24.52558-29.564339-15.644305-46.663786 6.269797-12.072967 18.757203-19.057031 31.740912-19.057031 5.440919 0 10.921747 1.232061 16.066931 3.736091C861.876064 189.650617 895.736243 220.034625 919.678538 257.719922L919.678538 257.719922 919.678538 257.719922 919.678538 257.719922zM919.678538 257.719922M767.073908 381.38852299999996l-0.172939 0c0.004093 0.26913 0.00921 0.537236 0.00921 0.808412 0 27.249621-7.573489 52.844555-20.837584 75.100442-4.427846 11.084453-15.744589 18.97005-29.012777 18.97005-17.124006 0-31.009248-13.132088-31.009248-29.333072 0-8.31334 3.662413-15.812127 9.535167-21.149693 6.225795-13.363356 9.69378-28.096918 9.69378-43.587728 0-0.543376-0.020466-1.082658-0.027629-1.622964l0.195451 0c0.00614-0.26913 0.014326-0.537236 0.014326-0.807389 0-15.491833-3.467985-30.225395-9.69378-43.588751-5.872754-5.337565-9.535167-12.837376-9.535167-21.148669 0-16.19996 13.884218-29.334095 31.009248-29.334095 13.268188 0 24.583908 7.885598 29.012777 18.969027 13.264095 22.255887 20.837584 47.850821 20.837584 75.100442C767.092327 380.30688799999996 767.080048 380.84719399999994 767.073908 381.38852299999996z"  horiz-adv-x="1024" />

    
    <glyph glyph-name="down-circle" unicode="&#59263;" d="M690 491h-46.9c-10.2 0-19.9-4.9-25.9-13.2L512 332.4 406.8 477.8c-6 8.3-15.6 13.2-25.9 13.2H334c-6.5 0-10.3-7.4-6.5-12.7l178-246c3.2-4.4 9.7-4.4 12.9 0l178 246c3.9 5.3 0.1 12.7-6.4 12.7zM512 832C264.6 832 64 631.4 64 384s200.6-448 448-448 448 200.6 448 448S759.4 832 512 832z m0-820c-205.4 0-372 166.6-372 372s166.6 372 372 372 372-166.6 372-372-166.6-372-372-372z"  horiz-adv-x="1024" />

    
    <glyph glyph-name="up-circle" unicode="&#59269;" d="M518.5 535.7c-3.2 4.4-9.7 4.4-12.9 0l-178-246c-3.8-5.3 0-12.7 6.5-12.7H381c10.2 0 19.9 4.9 25.9 13.2L512 435.6l105.2-145.4c6-8.3 15.6-13.2 25.9-13.2H690c6.5 0 10.3 7.4 6.5 12.7l-178 246zM512 832C264.6 832 64 631.4 64 384s200.6-448 448-448 448 200.6 448 448S759.4 832 512 832z m0-820c-205.4 0-372 166.6-372 372s166.6 372 372 372 372-166.6 372-372-166.6-372-372-372z"  horiz-adv-x="1024" />

    
    <glyph glyph-name="down-circle-fill" unicode="&#59460;" d="M512 832C264.6 832 64 631.4 64 384s200.6-448 448-448 448 200.6 448 448S759.4 832 512 832z m184.5-353.7l-178-246c-3.2-4.4-9.7-4.4-12.9 0l-178 246c-3.8 5.3 0 12.7 6.5 12.7H381c10.2 0 19.9-4.9 25.9-13.2L512 332.4l105.2 145.4c6 8.3 15.6 13.2 25.9 13.2H690c6.5 0 10.3-7.4 6.5-12.7z"  horiz-adv-x="1024" />

    
    <glyph glyph-name="up-circle-fill" unicode="&#59461;" d="M512 832C264.6 832 64 631.4 64 384s200.6-448 448-448 448 200.6 448 448S759.4 832 512 832z m178-555h-46.9c-10.2 0-19.9 4.9-25.9 13.2L512 435.6 406.8 290.2c-6-8.3-15.6-13.2-25.9-13.2H334c-6.5 0-10.3 7.4-6.5 12.7l178 246c3.2 4.4 9.7 4.4 12.9 0l178-246c3.9-5.3 0.1-12.7-6.4-12.7z"  horiz-adv-x="1024" />

    
    <glyph glyph-name="earth" unicode="&#59230;" d="M266.026667 620.672a341.333333 341.333333 0 0 1 376.192-552.277333c4.906667 32-5.845333 62.72-10.24 73.472-9.813333 23.893333-42.154667 64.725333-96.128 121.344-14.421333 15.146667-13.482667 26.794667-8.32 61.312l0.554666 3.882666c3.498667 23.637333 9.386667 37.632 88.96 50.261334 40.448 6.4 51.072-9.728 65.792-32.128l4.949334-7.338667c13.994667-20.48 24.362667-25.173333 40.021333-32.256 7.04-3.2 15.786667-7.253333 27.52-13.866667 27.818667-15.914667 27.818667-33.877333 27.818667-73.216v-4.48c0-16.682667-1.621333-31.36-4.181334-44.117333a341.418667 341.418667 0 0 1-132.48 526.549333c-23.594667-15.914667-55.978667-38.485333-67.285333-53.973333-5.76-7.893333-13.952-48.298667-40.533333-51.626667-6.912-0.853333-16.256-0.256-26.154667 0.384-26.538667 1.706667-62.805333 4.053333-74.410667-27.477333-7.381333-19.968-8.661333-74.24 15.189334-102.4 3.84-4.48 4.565333-12.8 1.962666-22.144-3.413333-12.245333-10.282667-19.712-12.458666-21.248-4.096 2.389333-12.288 11.904-17.877334 18.346667-13.354667 15.573333-30.08 34.986667-51.669333 40.96-7.850667 2.176-16.469333 3.968-24.874667 5.76-23.424 4.906667-49.92 10.496-56.106666 23.637333-4.522667 9.642667-4.48 22.912-4.48 36.906667 0 17.792 0 37.888-8.704 57.386666a54.442667 54.442667 0 0 1-13.056 18.346667zM512-42.66666699999996C276.352-42.66666699999996 85.333333 148.35199999999998 85.333333 384S276.352 810.666667 512 810.666667s426.666667-191.018667 426.666667-426.666667-191.018667-426.666667-426.666667-426.666667z"  horiz-adv-x="1024" />

    
    <glyph glyph-name="earth-solid" unicode="&#59231;" d="M512-42.66666699999996C276.352-42.66666699999996 85.333333 148.35199999999998 85.333333 384S276.352 810.666667 512 810.666667s426.666667-191.018667 426.666667-426.666667-191.018667-426.666667-426.666667-426.666667z m271.146667 258.048v4.48c0 39.338667 0 57.301333-27.818667 73.216a314.624 314.624 0 0 1-27.52 13.866667c-15.658667 7.125333-26.026667 11.776-40.021333 32.256a512.597333 512.597333 0 0 0-4.949334 7.338667c-14.72 22.4-25.344 38.528-65.792 32.128-79.573333-12.629333-85.461333-26.624-88.96-50.261334l-0.554666-3.882666c-5.162667-34.56-6.101333-46.165333 8.32-61.312 53.973333-56.618667 86.314667-97.450667 96.128-121.344 4.778667-11.648 17.066667-46.933333 8.618666-81.834667a349.226667 349.226667 0 0 1 134.442667 95.445333c4.693333 15.957333 8.106667 35.84 8.106667 59.904zM512 732.458667c-98.858667 0-188.16-41.216-251.562667-107.349334 7.552-5.248 14.122667-12.629333 18.645334-22.784 8.704-19.498667 8.704-39.594667 8.704-57.386666 0-13.994667 0-27.306667 4.48-36.906667 6.144-13.141333 32.682667-18.773333 56.106666-23.637333 8.405333-1.792 17.024-3.584 24.874667-5.76 21.589333-5.973333 38.314667-25.386667 51.669333-40.96 5.546667-6.442667 13.781333-15.957333 17.92-18.346667 2.133333 1.536 9.002667 9.002667 12.373334 21.248 2.645333 9.386667 1.877333 17.664-1.92 22.186667-23.893333 28.16-22.570667 82.346667-15.189334 102.357333 11.605333 31.530667 47.872 29.184 74.410667 27.477333 9.898667-0.64 19.2-1.28 26.197333-0.384 26.538667 3.328 34.730667 43.733333 40.490667 51.626667 12.458667 17.066667 50.602667 42.794667 74.24 58.666667A347.221333 347.221333 0 0 1 512 732.458667z"  horiz-adv-x="1024" />

    
    <glyph glyph-name="tags" unicode="&#59365;" d="M483.2 105.7L861.4 484c1.7 1.7 2.5 4 2.3 6.3l-25.5 301.4c-0.7 7.8-6.8 13.9-14.6 14.6L522.2 831.7c-2.3 0.2-4.7-0.6-6.3-2.3L137.7 451.2c-3.1-3.1-3.1-8.2 0-11.3l334.2-334.2c3.1-3.2 8.2-3.2 11.3 0z m62.6 651.7l224.6-19 19-224.6L477.5 202 233.9 445.5l311.9 311.9zM605.958852 571.173768a48 48 0 1 1 67.881066 67.883435 48 48 0 1 1-67.881066-67.883435ZM889.7 356.2l-39.6 39.5c-3.1 3.1-8.2 3.1-11.3 0l-362-361.3-237.6 237c-3.1 3.1-8.2 3.1-11.3 0l-39.6-39.5c-3.1-3.1-3.1-8.2 0-11.3l243.2-242.8 39.6-39.5c3.1-3.1 8.2-3.1 11.3 0l407.3 406.6c3.1 3.1 3.1 8.2 0 11.3z"  horiz-adv-x="1024" />

    
    <glyph glyph-name="tags-solid" unicode="&#59502;" d="M483.2 105.70000000000005L861.4 484c1.7 1.7 2.5 4 2.3 6.3l-25.5 301.4c-0.7 7.8-6.8 13.9-14.6 14.6L522.2 831.7c-2.3 0.2-4.7-0.6-6.3-2.3L137.7 451.2c-3.1-3.1-3.1-8.2 0-11.3l334.2-334.2c3.1-3.2 8.2-3.2 11.3 0z m122.7 533.4c18.7 18.7 49.1 18.7 67.9 0 18.7-18.7 18.7-49.1 0-67.9-18.7-18.7-49.1-18.7-67.9 0-18.7 18.7-18.7 49.1 0 67.9zM889.7 356.20000000000005l-39.6 39.5c-3.1 3.1-8.2 3.1-11.3 0l-362-361.3-237.6 237c-3.1 3.1-8.2 3.1-11.3 0l-39.6-39.5c-3.1-3.1-3.1-8.2 0-11.3l243.2-242.8 39.6-39.5c3.1-3.1 8.2-3.1 11.3 0l407.3 406.6c3.1 3.1 3.1 8.2 0 11.3z"  horiz-adv-x="1024" />

    
    <glyph glyph-name="bookmark-solid" unicode="&#59892;" d="M792.73142844 795.42857156q12.34285687 0 23.58857156-4.8 17.69142844-6.99428531 28.11428531-21.94285687t10.42285688-33.18857157l0-690.51428531q0-18.24-10.42285688-33.18857156t-28.11428531-21.94285688q-10.14857156-4.25142844-23.58857156-4.25142843-25.71428531 0-44.43428531 17.14285687l-236.22857157 227.17714313-236.22857156-227.17714313q-19.26857156-17.69142844-44.43428531-17.69142844-12.34285687 0-23.58857156 4.8-17.69142844 6.99428531-28.11428532 21.94285688t-10.42285687 33.18857156l0 690.51428531q0 18.24 10.42285687 33.18857157t28.11428532 21.94285687q11.24571469 4.8 23.58857156 4.8l561.39428531 0z"  horiz-adv-x="1024" />

    
    <glyph glyph-name="bookmark" unicode="&#59893;" d="M786.28571469 726.85714312l-548.57142844 1e-8 0-665.34857157 274.28571469 263.04 47.65714312-45.53142844 226.62857157-217.50857156 0 665.34857157zM792.73142844 795.42857156q12.34285687 0 23.58857156-4.8 17.69142844-6.99428531 28.11428531-21.94285687t10.42285688-33.18857157l0-690.51428531q0-18.24-10.42285688-33.18857156t-28.11428531-21.94285688q-10.14857156-4.25142844-23.58857156-4.25142843-25.71428531 0-44.43428531 17.14285687l-236.22857157 227.17714313-236.22857156-227.17714313q-19.26857156-17.69142844-44.43428531-17.69142844-12.34285687 0-23.58857156 4.8-17.69142844 6.99428531-28.11428532 21.94285688t-10.42285687 33.18857156l0 690.51428531q0 18.24 10.42285687 33.18857157t28.11428532 21.94285687q11.24571469 4.8 23.58857156 4.8l561.39428531 0z"  horiz-adv-x="1024" />

    
    <glyph glyph-name="heart" unicode="&#58959;" d="M697.56 729.56a197.17 197.17 0 0 0 140.32-58.11c77.36-77.37 77.36-203.26 0-280.64L512 64.95000000000005 186.12 390.81c-77.37 77.38-77.37 203.27 0 280.64a198.45 198.45 0 0 0 280.62 0L512 626.19l45.25 45.26a197.16 197.16 0 0 0 140.31 58.11m0 64A261.6 261.6 0 0 1 512 716.7a262.44 262.44 0 0 1-371.13 0c-102.49-102.48-102.49-268.64 0-371.14L512-25.559999999999945l371.14 371.12c102.48 102.5 102.48 268.66 0 371.14a261.65 261.65 0 0 1-185.58 76.86z"  horiz-adv-x="1024" />

    
    <glyph glyph-name="user" unicode="&#58964;" d="M512 384c123.71 0 224 100.28 224 224S635.71 832 512 832 288 731.71 288 608s100.29-224 224-224z m0 384c88.22 0 160-71.78 160-160s-71.78-160-160-160-160 71.78-160 160 71.78 160 160 160zM704 320H320c-105.6 0-192-86.4-192-192s86.4-192 192-192h384c105.6 0 192 86.39 192 192s-86.4 192-192 192z m0-320H320a128 128 0 0 0 0 256h384a128 128 0 0 0 0-256z"  horiz-adv-x="1024" />

    
    <glyph glyph-name="message" unicode="&#58963;" d="M512 384.43m-64 0a64 64 0 1 1 128 0 64 64 0 1 1-128 0ZM288 384.43m-64 0a64 64 0 1 1 128 0 64 64 0 1 1-128 0ZM736 384.43m-64 0a64 64 0 1 1 128 0 64 64 0 1 1-128 0ZM512 831.57c-247.42 0-448-186.25-448-416 0-127.67 62.07-241.77 159.56-318.08l23.06-121.85a48.06 48.06 0 0 1 65.61-35.56l137.17 64a483.24 483.24 0 0 1 62.6-4.52c247.42 0 448 186.25 448 416S759.42 831.57 512 831.57z m0-768c-16.14 0-33.4 1.26-54.34 4a64.16 64.16 0 0 1-35.32-5.47l-116.65-54.44-19.24 101.73a64 64 0 0 1-23.45 38.5C177.21 215 128 312.61 128 415.57c0 194.09 172.26 352 384 352s384-157.91 384-352-172.26-352-384-352z"  horiz-adv-x="1024" />

    
    <glyph glyph-name="message-solid" unicode="&#58971;" d="M512 831.5699999999999c-247.42 0-448-186.25-448-416 0-127.67 62.07-241.77 159.56-318.08l23.06-121.85a48.12 48.12 0 0 1 65.61-35.55l137.17 64a481.47 481.47 0 0 1 62.6-4.53c247.42 0 448 186.25 448 416S759.42 831.5699999999999 512 831.5699999999999zM288 320.42999999999995a64 64 0 1 0 64 64 64 64 0 0 0-64-64z m224 0a64 64 0 1 0 64 64 64 64 0 0 0-64-64z m224 0a64 64 0 1 0 64 64 64 64 0 0 0-64-64z"  horiz-adv-x="1024" />

    
    <glyph glyph-name="heart-solid" unicode="&#58972;" d="M883.14 716.7C780.65 819.19 614.48 819.19 512 716.7c-102.49 102.49-268.65 102.49-371.14 0-102.48-102.48-102.48-268.7 0-371.13L512-25.57000000000005l371.14 371.14c102.48 102.43 102.48 268.65 0 371.13z"  horiz-adv-x="1024" />

    
    <glyph glyph-name="user-solid" unicode="&#58974;" d="M512 608m-224 0a224 224 0 1 1 448 0 224 224 0 1 1-448 0ZM704 320H320c-105.6 0-192-86.4-192-192s86.4-192 192-192h384c105.6 0 192 86.39 192 192s-86.4 192-192 192z"  horiz-adv-x="1024" />

    
    <glyph glyph-name="dislike" unicode="&#58903;" d="M930.016 384q-4.992 24.992-16.992 48 15.008 32.992 10.016 64.992-4.992 36-35.008 64.992 11.008 32.992 4 64.992-10.016 39.008-46.016 67.008 0 3.008-2.016 12-7.008 36.992-32.992 64.992-52.992 59.008-168.992 59.008H640q-58.016 0-108.992-7.008t-75.008-13.504-60-18.496h-2.016q-56-18.016-86.016-18.016H159.968q-28 0-48-20t-20-48.992v-336.992q0-28.992 20-48.992t48.992-20h104.992q27.008 0 48.992-12.992 32-20 62.016-51.008 56-59.008 74.016-140.992 2.016-7.008 4-20.992 0-0.992 0.992-4.992v-0.992q7.008-43.008 16-64 19.008-43.008 60.992-56.992 28.992-8.992 59.008-7.008 36.992 3.008 64 24 30.016 22.016 46.016 60 16 40 16 96v3.008q-3.008 48.992-19.008 95.008h92q38.016 0 70.016 18.016 22.016 12.992 40.992 36.512t27.008 54.496q6.016 28.992 0.992 59.008z m-85.024 29.984q24.992-40 16.992-72.992-7.008-32-35.008-48-16-8.992-36.992-8.992h-108.992q-30.016 0-46.016-24.992-16.992-24.992-4.992-52.992 16-36.992 19.008-88.992 0-76-32.992-100-24.992-18.016-62.016-7.008-14.016 4.992-20 18.496t-11.008 49.504l-6.016 30.016q-22.016 100-91.008 172-36 39.008-76 63.008-12.992 7.008-24.992 12V706.048q32.992 2.016 91.008 20.992 34.016 11.008 56.512 16.992t68.512 12T640 762.048h2.016q84.992 0 118.016-36 10.016-10.016 14.496-22.016t4.992-17.504-0.512-7.488q-2.016-22.016 16.992-32 24.992-15.008 28.992-34.016 4.992-22.016-7.008-42.016-8-12-5.504-25.504t14.496-21.504q26.016-16.992 28.992-36 3.008-16.992-8.992-34.016-15.008-19.008-2.016-40zM160 704v0.992h96.992v-339.008h-96q-0.992 0-0.992 0.992V703.968z"  horiz-adv-x="1024" />

    
    <glyph glyph-name="like" unicode="&#58930;" d="M928 444q-7.008 30.016-26.016 53.504t-40.992 36.512q-32 18.016-71.008 18.016h-91.008q14.016 42.016 18.016 95.008v3.008q0 56-16 96-15.008 38.016-44.992 60.992-28 20-64 23.008-28.992 2.016-59.008-7.008-42.016-14.016-60.992-56-10.016-22.016-16-64.992l-0.992-0.992v-4.992q-2.016-12-4-20.992-18.016-82.016-74.016-140.992-30.016-32-62.016-50.016-22.016-14.016-48.992-14.016H160.992q-28.992 0-48.992-20t-20-48.992v-336.992q0-28 20-48.512t48-20.512h148q28.992 0 86.016-18.016h0.992q38.016-12 61.504-18.496t74.496-13.504 108.992-7.008h2.016q116 0 168.992 60 26.016 28 32.992 64 2.016 10.016 2.016 12.992 36 27.008 44.992 66.016 8 32-3.008 64.992 30.016 28.992 35.008 64.992 4.992 32-10.016 64.992 12 24 16.992 48 4.992 30.016-2.016 60z m-80.992-130.016q12-16 8.992-34.016-3.008-19.008-28.992-36-12-8-14.496-21.504t5.504-25.504q11.008-24 7.008-40.992-4-19.008-28.992-34.016-19.008-11.008-16.992-32.992 0.992-2.016 0.512-7.488t-4.992-17.504-14.496-22.016q-32.992-36-119.008-36h-0.992q-52.992 0-99.008 6.016t-68.512 12-56.512 16.992q-58.016 19.008-91.008 22.016V412.992q12.992 4.992 24.992 12 40 24 76 63.008 68.992 72 91.008 172l6.016 30.016q4.992 36 11.008 49.504t20 17.504q36.992 12 62.016-6.016 32.992-24 34.016-100-4-52-20-88.992-12-28 4.992-52.992t46.016-24.992h108.992q20.992 0 36.992-10.016 28-15.008 35.008-47.008 8-32.992-16.992-72.992-12.992-20.992 2.016-40zM160 400.992q0 0.992 0.992 0.992h96v-339.008h-96q-0.992 0-0.992 0.992V400.96z"  horiz-adv-x="1024" />

    
    <glyph glyph-name="crown" unicode="&#59033;" d="M935.016 544.156c-20.479 17.255-48.429 21.38-72.947 10.719l-143.824-62.367-91.254 109.815c8.447 15.248 13.815 32.065 15.767 49.734 4.342 38.947-8.397 77.514-34.967 105.842-25.324 26.979-59.517 41.932-96.47 42.101-36.836-0.026-71.079-14.624-96.404-41.106-26.924-28.151-40.049-66.71-35.977-105.792 1.885-18.023 7.286-35.177 15.886-50.72l-91.221-109.789-141.451 61.903c-24.568 10.744-52.552 6.696-73.081-10.568-20.512-17.255-29.363-44.184-23.087-70.278l108.671-451.843C182.262-9.870000000000005 210.28-32 242.79-32h538.357c32.51 0 60.528 22.13 68.133 53.792l108.739 452.146c6.26 26.059-2.558 52.963-23.003 70.218zM781.146 37.09000000000003l-539.484 0.894-108.671 451.859 1.599 1.332 165.161-72.277c14.051-6.173 30.44-2.244 40.267 9.556l124.675 150.051c10.971 13.216 10.584 32.512-0.926 45.272-9.356 10.373-14.825 22.653-16.272 36.492-1.952 18.833 4.292 37.353 17.164 50.805 12.401 12.972 28.556 19.828 46.528 19.836 17.686-0.084 34.177-7.312 46.41-20.342 12.688-13.536 18.762-32.065 16.676-50.855-1.497-13.451-7.101-25.883-16.205-35.936-11.544-12.752-11.948-32.082-0.96-45.323l124.674-150.026c9.794-11.765 26.15-15.712 40.167-9.59L889.43 491.47l-13.681 31.703 15.263-33.043-109.866-453.04zM322.766 308.85799999999995c-3.846 17.25-20.943 28.117-38.196 24.271-17.25-3.846-28.116-20.946-24.271-38.196l35-157c3.323-14.906 16.542-25.044 31.204-25.044a32.16 32.16 0 0 1 6.993 0.773c17.25 3.846 28.116 20.946 24.271 38.196l-35.001 157z"  horiz-adv-x="1024" />

    
    <glyph glyph-name="emoji" unicode="&#59246;" d="M661.333333 448c35.413333 0 64 28.586667 64 64s-28.586667 64-64 64-64-28.586667-64-64 28.586667-64 64-64zM362.666667 448c35.413333 0 64 28.586667 64 64s-28.586667 64-64 64-64-28.586667-64-64 28.586667-64 64-64zM512 149.33333300000004c111.36 0 205.866667 71.253333 241.066667 170.666667l-482.133333 0c35.2-99.413333 129.706667-170.666667 241.066667-170.666667zM511.786667 832c-235.733333 0-426.453333-190.933333-426.453333-426.666667s190.72-426.666667 426.453333-426.666667c235.733333 0 426.88 190.933333 426.88 426.666667s-191.146667 426.666667-426.88 426.666667zM512 64c-188.586667 0-341.333333 152.746667-341.333333 341.333333s152.746667 341.333333 341.333333 341.333333 341.333333-152.746667 341.333333-341.333333-152.746667-341.333333-341.333333-341.333333z"  horiz-adv-x="1024" />

    
    <glyph glyph-name="keyboard" unicode="&#59245;" d="M853.333333 682.666667l-682.666667 0c-47.146667 0-84.906667-38.186667-84.906667-85.333333l-0.426667-426.666667c0-47.146667 38.186667-85.333333 85.333333-85.333333l682.666667 0c47.146667 0 85.333333 38.186667 85.333333 85.333333l0 426.666667c0 47.146667-38.186667 85.333333-85.333333 85.333333zM469.333333 554.666667l85.333333 0 0-85.333333-85.333333 0 0 85.333333zM469.333333 426.666667l85.333333 0 0-85.333333-85.333333 0 0 85.333333zM341.333333 554.666667l85.333333 0 0-85.333333-85.333333 0 0 85.333333zM341.333333 426.666667l85.333333 0 0-85.333333-85.333333 0 0 85.333333zM298.666667 341.333333l-85.333333 0 0 85.333333 85.333333 0 0-85.333333zM298.666667 469.333333l-85.333333 0 0 85.333333 85.333333 0 0-85.333333zM682.666667 170.666667l-341.333333 0 0 85.333333 341.333333 0 0-85.333333zM682.666667 341.333333l-85.333333 0 0 85.333333 85.333333 0 0-85.333333zM682.666667 469.333333l-85.333333 0 0 85.333333 85.333333 0 0-85.333333zM810.666667 341.333333l-85.333333 0 0 85.333333 85.333333 0 0-85.333333zM810.666667 469.333333l-85.333333 0 0 85.333333 85.333333 0 0-85.333333z"  horiz-adv-x="1024" />

    
    <glyph glyph-name="mic" unicode="&#59336;" d="M512 298.666667c70.613333 0 127.573333 57.386667 127.573333 128l0.426667 256c0 70.826667-57.173333 128-128 128-70.613333 0-128-57.173333-128-128l0-256c0-70.613333 57.386667-128 128-128zM738.133333 426.666667c0-128-108.16-217.6-226.133333-217.6-117.76 0-226.133333 89.6-226.133333 217.6l-72.533333 0c0-145.706667 116.053333-266.026667 256-286.72l0-139.946667 85.333333 0 0 139.946667c139.946667 20.693333 256 141.013333 256 286.72l-72.533333 0z"  horiz-adv-x="1024" />

    
    <glyph glyph-name="photo" unicode="&#59409;" d="M896 85.333333l0 597.333333c0 47.146667-38.186667 85.333333-85.333333 85.333333l-597.333333 0c-47.146667 0-85.333333-38.186667-85.333333-85.333333l0-597.333333c0-47.146667 38.186667-85.333333 85.333333-85.333333l597.333333 0c47.146667 0 85.333333 38.186667 85.333333 85.333333zM362.666667 320l106.666667-128.213333 149.333333 192.213333 192-256-597.333333 0 149.333333 192z"  horiz-adv-x="1024" />

    
    <glyph glyph-name="camera" unicode="&#59447;" d="M648.533333 384c0-75.392-61.141333-136.533333-136.533333-136.533333s-136.533333 61.141333-136.533333 136.533333c0 75.392 61.141333 136.533333 136.533333 136.533333s136.533333-61.141333 136.533333-136.533333zM384 810.666667l-78.08-85.333333-135.253333 0c-47.146667 0-85.333333-38.186667-85.333333-85.333333l0-512c0-47.146667 38.186667-85.333333 85.333333-85.333333l682.666667 0c47.146667 0 85.333333 38.186667 85.333333 85.333333l0 512c0 47.146667-38.186667 85.333333-85.333333 85.333333l-135.253333 0-78.08 85.333333-256 0zM512 170.66666699999996c-117.76 0-213.333333 95.573333-213.333333 213.333333s95.573333 213.333333 213.333333 213.333333 213.333333-95.573333 213.333333-213.333333-95.573333-213.333333-213.333333-213.333333z"  horiz-adv-x="1024" />

    
    <glyph glyph-name="ask-question" unicode="&#59007;" d="M512 864C247.04 864 32 672 32 432A410.24 410.24 0 0 1 172.48 128L160-69.12a25.28 25.28 0 0 1 39.04-22.4l168 112A528.64 528.64 0 0 1 512 0c264.96 0 480 192 480 432S776.96 864 512 864z m-21.12-716.16a70.08 70.08 0 1 0 70.4 70.4 70.08 70.08 0 0 0-70.4-70.4z m104.32 280.32c-28.16-22.4-42.88-35.2-42.88-57.28a60.16 60.16 0 0 0-120.32 0c0 77.12 48 116.16 83.2 144.64 22.08 17.92 35.2 29.44 35.2 40.32s0 37.76-59.52 37.76a128 128 0 0 1-64-16.32 64 64 0 0 0-32-9.92 57.6 57.6 0 0 0-57.6 57.6 58.88 58.88 0 0 0 32 51.52 231.04 231.04 0 0 0 128 35.52c105.28 0 176-61.44 176-152.96a160 160 0 0 0-78.08-131.2z"  horiz-adv-x="1024" />

    
    <glyph glyph-name="graduate" unicode="&#58922;" d="M226.912 318.944v-163.552L512 0l285.088 155.36v163.552L512 163.552l-285.088 155.392zM512 736L64 490.656l448-245.312 366.56 200.352v-282.112H960V490.656L512 736z"  horiz-adv-x="1024" />

    
    <glyph glyph-name="answer" unicode="&#59092;" d="M512 817.230769C250.092308 817.230769 39.384615 624.246154 39.384615 384c0-76.8 21.661538-147.692308 59.076923-212.676923 3.938462-7.876923 5.907692-17.723077 3.938462-25.6L59.076923 9.846154c-7.876923-25.6 15.753846-47.261538 41.353846-39.384616l137.846154 47.261539c9.846154 3.938462 19.692308 1.969231 27.569231-3.938462 72.861538-41.353846 157.538462-64.984615 248.123077-64.984615 261.907692 0 472.615385 192.984615 472.615384 433.230769C982.646154 624.246154 771.938462 817.230769 512 817.230769z m226.461538-336.738461l-240.246153-236.307693c-9.846154-9.846154-19.692308-13.784615-33.476923-13.784615-11.815385 0-23.630769 3.938462-33.476924 13.784615L315.076923 358.4c-9.846154 9.846154-9.846154 23.630769 0 31.507692l33.476923 31.507693c9.846154 9.846154 23.630769 9.846154 33.476923 0l82.707693-82.707693 206.76923 204.8c9.846154 9.846154 23.630769 9.846154 33.476923 0l33.476923-31.507692c7.876923-7.876923 7.876923-23.630769 0-31.507692z"  horiz-adv-x="1024" />

    
    <glyph glyph-name="crown-solid" unicode="&#59023;" d="M935.016 544.156c-20.479 17.255-48.429 21.38-72.947 10.719l-143.824-62.367-91.254 109.815c8.447 15.248 13.815 32.065 15.767 49.734 4.342 38.947-8.397 77.514-34.967 105.842-25.324 26.979-59.517 41.932-96.47 42.101-36.836-0.026-71.079-14.624-96.404-41.106-26.924-28.151-40.049-66.71-35.977-105.792 1.885-18.023 7.286-35.177 15.886-50.72l-91.221-109.789-141.451 61.903c-24.568 10.744-52.552 6.696-73.081-10.568-20.512-17.255-29.363-44.184-23.087-70.278l108.671-451.843C182.262-9.870000000000005 210.28-32 242.79-32h538.357c32.51 0 60.528 22.13 68.133 53.792l108.739 452.146c6.26 26.059-2.558 52.963-23.003 70.218zM284.57 333.13c17.25 3.84 34.35-7.02 38.2-24.27l35-157c3.84-17.25-7.02-34.35-24.27-38.2-2.35-0.52-4.69-0.77-7-0.77-14.66 0-27.88 10.14-31.2 25.04l-35 157c-3.85 17.25 7.02 34.35 24.27 38.2z"  horiz-adv-x="1024" />

    
    <glyph glyph-name="ellipsis" unicode="&#58908;" d="M192.992 408q0 26.016 19.008 44.992t45.504 19.008 44.992-19.008 18.496-44.992-18.496-44.992-44.992-19.008-45.504 19.008-19.008 44.992z m256 0q0 26.016 19.008 44.992t44.992 19.008 44.992-19.008 19.008-44.992-19.008-44.992-44.992-19.008-44.992 19.008-19.008 44.992z m256 0q0 26.016 18.496 44.992t44.992 19.008 45.504-19.008 19.008-44.992-19.008-44.992-45.504-19.008-44.992 19.008-18.496 44.992z"  horiz-adv-x="1024" />

    
    <glyph glyph-name="dislike-solid" unicode="&#58904;" d="M330.016 287.00800000000004q-6.016 8.992-8 22.496T320 332V680.992q-3.008 48.992 12 72 4 6.016 8.992 10.016T349.984 768l3.008 0.992q68.992 16.992 80.992 22.016 27.008 12.992 68.992 22.016t74.016 11.008q46.016 3.008 100 0 3.008 0 8.512-0.512t21.504-4 30.496-8.992 33.504-16 32.992-24 25.504-34.496 15.488-47.008q0.992-0.992 3.488-2.496t8.512-7.008 11.488-12 11.008-17.504 8.992-23.488 3.488-30.496-4.992-38.016q3.008-2.016 6.496-6.016t12-16.992 12.992-27.008 3.488-35.488-11.008-42.496q0.992-4 4-9.504t7.488-23.488 6.016-35.008-3.488-39.008-18.016-40.992q-0.992-2.016-4-6.016t-14.496-14.496-24-18.016-33.504-14.016-44-6.496h-80.992q-23.008 3.008-27.008-4-2.016-2.016-2.496-4t-0.512-4.992 0.512-4.992 2.496-8.512 3.008-11.488q8-32 10.496-63.488t-0.992-69.504-24-68-57.504-44.992q-2.016-0.992-6.496-2.496t-16.512-4-23.488-2.016-25.504 7.008-24.512 19.488-18.496 38.496-8.992 61.504q0 3.008-0.512 10.016t-7.008 28-19.008 43.488-40 55.488-66.496 64q-12.992 12-23.008 28.992zM96.992 696.992q0 28.992 20.992 50.496t51.008 21.504h22.016q30.016 0 51.008-21.504t20.992-50.496v-332.992q0-30.016-20.992-51.008t-51.008-20.992h-22.016q-30.016 0-51.008 20.992t-20.992 51.008V696.992z"  horiz-adv-x="1024" />

    
    <glyph glyph-name="like-solid" unicode="&#58929;" d="M324.992 476q-4.992-8.992-7.488-22.496t-2.496-23.488l0.992-8.992v-339.008q-3.008-48.992 12-72 4-6.016 8.992-10.016t8-4.992l4-0.992q68-16.992 80.992-22.016 27.008-12.992 68.992-22.016t72.992-11.008q47.008-3.008 100.992 0 3.008 0 8.512 0.512t20.992 4 30.496 8.992 33.504 16 32.992 24 26.016 34.496 14.496 47.008q2.016 0.992 4 2.496t8.512 6.496 11.488 11.488 11.008 18.016 8.992 24 3.008 30.496-4 38.016l6.016 6.016 12.512 16.992 12.992 26.496 3.488 35.488-11.008 43.008q0.992 4 3.488 9.504t7.488 23.488 6.016 35.008-3.488 39.008-17.504 40.992q-2.016 2.016-4.992 6.016t-14.016 14.496-23.488 18.016-34.016 14.016-44.512 6.496h-80q-23.008-3.008-27.008 4-2.016 2.016-3.008 4t-0.512 4.992 0.992 4.992 2.016 8.512 3.488 11.488q7.008 32 10.016 63.488t-0.512 69.504-24 68-57.504 44q-2.016 2.016-6.496 3.488t-16.512 4-23.488 2.016-25.504-7.008-24.512-19.488-18.496-38.496-10.016-61.504q0.992-3.008 0.512-10.016t-7.488-28-19.008-43.488-40-55.488-66.016-64q-14.016-12-24-28.992z m-232-410.016q0-28.992 20.992-50.496t51.008-21.504h22.016q28.992 0 50.496 21.504t21.504 50.496V398.976q0 30.016-21.504 51.008t-50.496 20.992h-22.016q-30.016 0-51.008-20.992t-20.992-51.008v-332.992z"  horiz-adv-x="1024" />

    
    <glyph glyph-name="vectordifference" unicode="&#60233;" d="M128 853.333333C80.64 853.333333 42.666667 815.36 42.666667 768L42.666667 298.666667C42.666667 251.306667 80.64 213.333333 128 213.333333L213.333333 213.333333 213.333333 298.666667 128 298.666667 128 768 597.333333 768 597.333333 682.666667 682.666667 682.666667 682.666667 768C682.666667 815.36 644.693333 853.333333 597.333333 853.333333L128 853.333333M384 597.333333C336.64 597.333333 298.666667 559.36 298.666667 512L298.666667 426.666667 384 426.666667 384 512 469.333333 512 469.333333 597.333333 384 597.333333M554.666667 597.333333 554.666667 512 597.333333 512 597.333333 469.333333 682.666667 469.333333 682.666667 597.333333 554.666667 597.333333M768 597.333333 768 512 853.333333 512 853.333333 42.666667 384 42.666667 384 128 298.666667 128 298.666667 42.666667C298.666667-4.693333 336.64-42.666667 384-42.666667L853.333333-42.666667C900.693333-42.666667 938.666667-4.693333 938.666667 42.666667L938.666667 512C938.666667 559.36 900.693333 597.333333 853.333333 597.333333L768 597.333333M597.333333 384 597.333333 298.666667 512 298.666667 512 213.333333 597.333333 213.333333C644.693333 213.333333 682.666667 251.306667 682.666667 298.666667L682.666667 384 597.333333 384M298.666667 341.333333 298.666667 213.333333 426.666667 213.333333 426.666667 298.666667 384 298.666667 384 341.333333 298.666667 341.333333Z"  horiz-adv-x="1024" />

    
    <glyph glyph-name="sound-solid" unicode="&#58986;" d="M919.678538 257.719922c24.564465 38.642089 37.516452 83.32987 37.516452 129.170918 0 45.880957-12.989849 90.568738-37.516452 129.192408-23.942295 37.643342-57.802474 68.047816-97.902774 87.847767-17.505699 8.648984-38.917358 1.820462-47.798633-15.280008-8.882298-17.140379-1.87265-38.015825 15.643282-46.663786 59.508325-29.407774 96.443539-88.828095 96.443539-155.097404 0-66.269309-36.935214-125.709073-96.40363-155.076938-17.516956-8.685823-24.52558-29.564339-15.644305-46.663786 6.269797-12.072967 18.757203-19.057031 31.740912-19.057031 5.440919 0 10.921747 1.232061 16.066931 3.736091C861.876064 189.650617 895.736243 220.034625 919.678538 257.719922L919.678538 257.719922 919.678538 257.719922 919.678538 257.719922zM919.678538 257.719922M767.073908 381.38852299999996l-0.172939 0c0.004093 0.26913 0.00921 0.537236 0.00921 0.808412 0 27.249621-7.573489 52.844555-20.837584 75.100442-4.427846 11.084453-15.744589 18.97005-29.012777 18.97005-17.124006 0-31.009248-13.132088-31.009248-29.333072 0-8.31334 3.662413-15.812127 9.535167-21.149693 6.225795-13.363356 9.69378-28.096918 9.69378-43.587728 0-0.543376-0.020466-1.082658-0.027629-1.622964l0.195451 0c0.00614-0.26913 0.014326-0.537236 0.014326-0.807389 0-15.491833-3.467985-30.225395-9.69378-43.588751-5.872754-5.337565-9.535167-12.837376-9.535167-21.148669 0-16.19996 13.884218-29.334095 31.009248-29.334095 13.268188 0 24.583908 7.885598 29.012777 18.969027 13.264095 22.255887 20.837584 47.850821 20.837584 75.100442C767.092327 380.30688799999996 767.080048 380.84719399999994 767.073908 381.38852299999996zM553.970392 814.477288c-12.322653 5.811356-26.929326 4.206812-37.645388-4.069689-0.49221-0.411369-52.619428-40.814568-110.134353-82.214467C306.086745 656.211728 276.919449 644.2175560000001 271.026228 642.3183L159.633209 642.3183c-29.296233 0-54.983265-11.856026-72.42245-33.43653-15.009855-18.527982-22.946618-42.829458-22.946618-70.25918l0-305.281915c0-57.171094 47.562249-103.699804 106.075921-103.699804l36.861536 0 3.263323-2.320858 59.35176 6.139837 78.6902-37.363979c17.184381-12.273535 39.361473-28.956495 67.845201-51.642171 51.671846-41.126676 98.069573-81.293491 98.524944-81.669044 6.642281-5.770424 15.063067-8.763594 23.657816-8.763594 4.897543 0 9.875928 0.978281 14.518668 3.052522 12.785188 5.634324 21.005406 18.038842 21.005406 31.696909L574.058916 783.211191C574.058916 796.574546 566.252113 808.725284 553.970392 814.477288z"  horiz-adv-x="1024" />

    
    <glyph glyph-name="talk" unicode="&#58883;" d="M832.246154 815.876923L191.876923 815.876923C121.846154 815.876923 65.230769 773.169231 65.230769 720.369231l0-482.953846c0-52.8 56.738462-95.507692 126.646154-95.507692l319.876923 0 252.923077-189.784615-13.538462 189.784615 81.107692 0c70.030769 0 126.646154 42.830769 126.646154 95.507692L958.892308 720.369231C958.892308 773.169231 902.153846 815.876923 832.246154 815.876923L832.246154 815.876923zM261.292308 408.246154c-43.076923 0-78.030769 35.2-78.030769 78.646154 0 43.446154 34.953846 78.646154 78.030769 78.646154 43.076923 0 77.907692-35.2 77.907692-78.646154C339.2 443.446154 304.369231 408.246154 261.292308 408.246154L261.292308 408.246154zM506.215385 408.123077c-43.076923 0-78.030769 35.323077-78.030769 78.646154 0 43.446154 34.830769 78.646154 78.030769 78.646154 43.076923 0 78.030769-35.2 78.030769-78.646154C584.246154 443.323077 549.292308 408.123077 506.215385 408.123077L506.215385 408.123077zM756.553846 409.353846c-43.076923 0-77.907692 35.2-77.907692 78.646154 0 43.446154 34.953846 78.646154 77.907692 78.646154 43.076923 0 78.030769-35.2 78.030769-78.646154C834.584615 444.553846 799.630769 409.353846 756.553846 409.353846L756.553846 409.353846zM756.553846 409.353846"  horiz-adv-x="1024" />

    
    <glyph glyph-name="ask" unicode="&#59338;" d="M665.6 521.6c-12.8 57.6-57.6 105.6-118.4 118.4-67.2 16-131.2-9.6-169.6-64-28.8-41.6 0-60.8 16-73.6 6.4-3.2 12.8-9.6 22.4-19.2 12.8-12.8 32-9.6 44.8 3.2 12.8 12.8 9.6 32-3.2 44.8-9.6 6.4-16 12.8-22.4 19.2 22.4 25.6 60.8 38.4 96 28.8 35.2-9.6 60.8-35.2 70.4-70.4 9.6-48-12.8-92.8-54.4-112-41.6-19.2-70.4-57.6-70.4-102.4l0-22.4c0-19.2 12.8-32 32-32 0 0 0 0 0 0 16 0 32 12.8 32 32l0 22.4c0 19.2 12.8 38.4 32 44.8C643.2 368 681.6 444.8 665.6 521.6zM480 166.4c-9.6-9.6-12.8-22.4-12.8-35.2 0-12.8 6.4-25.6 12.8-35.2 9.6-9.6 22.4-12.8 35.2-12.8 12.8 0 25.6 6.4 35.2 12.8 9.6 9.6 12.8 22.4 12.8 35.2 0 12.8-6.4 25.6-12.8 35.2C531.2 185.6 499.2 185.6 480 166.4zM512 828.8c-80 0-160-22.4-227.2-64C246.4 809.6 188.8 832 124.8 832 115.2 832 102.4 825.6 96 816c-6.4-9.6-6.4-22.4 0-32 0 0 32-54.4 41.6-137.6 3.2-16 16-28.8 32-28.8 0 0 3.2 0 3.2 0C192 620.8 204.8 633.6 204.8 652.8 198.4 694.4 188.8 732.8 179.2 758.4 204.8 752 230.4 736 249.6 707.2c0 0 0 0 0 0 0 0 0 0 0 0C252.8 704 252.8 704 252.8 700.8c0 0 3.2-3.2 3.2-3.2 3.2 0 3.2-3.2 6.4-3.2 3.2 0 3.2-3.2 6.4-3.2 3.2 0 3.2 0 6.4 0 3.2 0 3.2 0 6.4 0 3.2 0 3.2 0 6.4 3.2 3.2 0 3.2 0 6.4 3.2 0 0 0 0 0 0 0 0 0 0 0 0 64 44.8 140.8 67.2 217.6 67.2 211.2 0 384-172.8 384-384s-172.8-384-384-384-384 172.8-384 384c0 54.4 9.6 105.6 32 156.8 6.4 16 0 35.2-16 41.6-16 6.4-35.2 0-41.6-16C76.8 505.6 64 444.8 64 380.8c0-246.4 201.6-448 448-448 246.4 0 448 201.6 448 448C960 627.2 758.4 828.8 512 828.8z"  horiz-adv-x="1024" />

    
    <glyph glyph-name="smile" unicode="&#59218;" d="M256 488a54.857143 54.857143 0 1 1 109.714286 0 54.857143 54.857143 0 1 1-109.714286 0z m402.285714 0a54.857143 54.857143 0 1 1 109.714286 0 54.857143 54.857143 0 1 1-109.714286 0zM512 896C229.257143 896 0 666.742857 0 384s229.257143-512 512-512 512 229.257143 512 512S794.742857 896 512 896z m300.571429-812.571429c-39.085714-39.085714-84.571429-69.714286-135.2-91.2C625.142857-29.942857 569.485714-41.142857 512-41.142857c-57.485714 0-113.142857 11.2-165.485714 33.371428A423.314286 423.314286 0 0 0 211.314286 83.428571c-39.085714 39.085714-69.714286 84.571429-91.2 135.2C98.057143 270.857143 86.857143 326.514286 86.857143 384s11.2 113.142857 33.371428 165.485714A423.314286 423.314286 0 0 0 211.428571 684.685714c39.085714 39.085714 84.571429 69.714286 135.2 91.2C398.857143 797.942857 454.514286 809.142857 512 809.142857c57.485714 0 113.142857-11.2 165.485714-33.371428A423.314286 423.314286 0 0 0 812.685714 684.571429c39.085714-39.085714 69.714286-84.571429 91.2-135.2C925.942857 497.142857 937.142857 441.485714 937.142857 384s-11.2-113.142857-33.371428-165.485714A421.588571 421.588571 0 0 0 812.571429 83.428571zM685.714286 360h-54.971429c-4.8 0-8.914286-3.657143-9.257143-8.457143C617.142857 294.971429 569.714286 250.285714 512 250.285714s-105.257143 44.685714-109.485714 101.257143c-0.342857 4.8-4.457143 8.457143-9.257143 8.457143H338.285714a9.142857 9.142857 0 0 1-9.142857-9.6c5.028571-96.342857 85.142857-173.257143 182.857143-173.257143s177.828571 76.914286 182.857143 173.257143a9.142857 9.142857 0 0 1-9.142857 9.6z"  horiz-adv-x="1024" />

    
    <glyph glyph-name="plant" unicode="&#58968;" d="M546.12992 315.74015999999995V561.3056c36.9664-13.568 80.06656-5.79584 109.74208 23.82848l0.03072 0.07168c54.528 54.56896 72.32512 131.76832 53.80096 201.32864-69.5296 18.50368-146.72896 0.6656-201.29792-53.83168v-0.1024c-20.79744-20.79744-30.83264-48.2304-30.37184-75.53024h-0.16384v-26.90048c-4.27008 2.33472-8.27392 4.99712-12.87168 6.90176-89.73312 37.20192-188.20096 20.66432-260.1984-34.34496 11.97056-89.92768 69.89824-171.13088 159.67232-208.40448 38.35904-15.8208 79.65696-11.70432 113.39776 6.87104v-85.46304H204.8v-68.25984h614.4v68.25984H546.12992zM285.87008 196.28031999999996l55.45984-221.87008h341.34016l55.45984 221.87008z"  horiz-adv-x="1024" />

    
    <glyph glyph-name="edit" unicode="&#59050;" d="M816.277333 730.944a128 128 0 0 0 0-181.013333L309.653333 43.306667a21.333333 21.333333 0 0 0-15.082666-6.229334H165.056a42.666667 42.666667 0 0 0-42.666667 42.666667v129.493333a21.333333 21.333333 0 0 0 6.229334 15.104L635.306667 730.944a128 128 0 0 0 180.992 0z m-45.226666-45.226667a64 64 0 0 1-87.786667 2.56l-2.752-2.56L188.885333 194.069333a8.533333 8.533333 0 0 1-2.496-6.037333v-78.464c0-4.714667 3.818667-8.533333 8.533334-8.533333h78.421333a8.533333 8.533333 0 0 1 6.037333 2.517333l491.648 491.605333a64 64 0 0 1 2.581334 87.786667l-2.56 2.730667zM590.016 685.696l181.013333-181.013333-45.248-45.248-181.013333 181.013333zM490.666667 100.266667m8.533333 0l345.6 0q8.533333 0 8.533333-8.533334l0-46.933333q0-8.533333-8.533333-8.533333l-345.6 0q-8.533333 0-8.533333 8.533333l0 46.933333q0 8.533333 8.533333 8.533334ZM661.333333 228.266667m8.533334 0l174.933333 0q8.533333 0 8.533333-8.533334l0-46.933333q0-8.533333-8.533333-8.533333l-174.933333 0q-8.533333 0-8.533334 8.533333l0 46.933333q0 8.533333 8.533334 8.533334Z"  horiz-adv-x="1024" />

    


  </font>
</defs>
</svg>
