<svg t="1600484664036" class="icon" viewBox="0 0 1024 1024" version="1.1" xmlns="http://www.w3.org/2000/svg" p-id="26128" width="24" height="24"><path d="M512 32C247.04 32 32 224 32 464A410.24 410.24 0 0 0 172.48 768L160 965.12a25.28 25.28 0 0 0 39.04 22.4l168-112A528.64 528.64 0 0 0 512 896c264.96 0 480-192 480-432S776.96 32 512 32z m-21.12 716.16a70.08 70.08 0 1 1 70.4-70.4 70.08 70.08 0 0 1-70.4 70.4z m104.32-280.32c-28.16 22.4-42.88 35.2-42.88 57.28a60.16 60.16 0 0 1-120.32 0c0-77.12 48-116.16 83.2-144.64 22.08-17.92 35.2-29.44 35.2-40.32s0-37.76-59.52-37.76a128 128 0 0 0-64 16.32 64 64 0 0 1-32 9.92 57.6 57.6 0 0 1-57.6-57.6 58.88 58.88 0 0 1 32-51.52 231.04 231.04 0 0 1 128-35.52c105.28 0 176 61.44 176 152.96a160 160 0 0 1-78.08 131.2z" fill="#ffffff" p-id="26129"></path></svg>