<svg id="Capa_1" enable-background="new 0 0 512 512" height="512" viewBox="0 0 512 512" width="512" xmlns="http://www.w3.org/2000/svg"><g><g><path d="m286 512h-60c-3.984 0-7.793-1.582-10.605-4.395l-25.606-25.605h-174.789c-8.291 0-15-6.709-15-15v-302c0-8.291 6.709-15 15-15h61c8.291 0 15 6.709 15 15v227h135c11.514 0 22.031 4.351 30 11.484 7.969-7.134 18.486-11.484 30-11.484h135v-227c0-8.291 6.709-15 15-15h61c8.291 0 15 6.709 15 15v302c0 8.291-6.709 15-15 15h-174.789l-25.605 25.605c-2.813 2.813-6.622 4.395-10.606 4.395z" fill="#ff641a"/></g><path d="m286 512c3.984 0 7.793-1.582 10.605-4.395l25.606-25.605h174.789c8.291 0 15-6.709 15-15v-302c0-8.291-6.709-15-15-15h-61c-8.291 0-15 6.709-15 15v227h-135c-11.514 0-22.031 4.351-30 11.484v108.516z" fill="#f03800"/><path d="m202 224.7c-32.1-19.2-51-52.8-51-89.7 0-9.6 1.199-17.999 3.3-25.8 2.588-10.345-4.749-19.2-14.4-19.2h-63.9c-8.401 0-15 6.599-15 15v302c0 8.401 6.599 15 15 15h150c8.401 0 15 6.599 15 15s6.599 15 15 15l30-94.224-30-78.776c-13.2-22.2-31.8-40.8-54-54.3z" fill="#fff5f5"/><g><g><path d="m451 105v302c0 8.401-6.599 15-15 15h-150c-8.401 0-15 6.599-15 15s-6.599 15-15 15v-173c12.9-21.899 31.5-40.8 54-54.3 32.1-19.2 51-52.8 51-89.7 0-9.6-1.199-17.999-3.3-25.8-2.588-10.345 4.749-19.2 14.4-19.2h63.9c8.401 0 15 6.599 15 15z" fill="#efe2dd"/></g></g><g><path d="m256.527 328.74c-5.728 0-11.499-2.007-14.004-7.163-10.444-31.172-29.971-55.518-56.016-71.104-40.429-24.404-65.507-68.642-65.507-115.473 0-12.246 1.45-23.379 4.453-34.058 15.073-59.282 68.789-100.942 130.547-100.942s115.474 41.66 130.635 101.309c2.915 10.312 4.365 21.445 4.365 33.691 0 46.831-25.078 91.069-65.449 115.444-26.104 15.615-45.63 39.961-55.005 68.613-2.505 5.157-8.276 9.683-14.019 9.683z" fill="#fed843"/></g><path d="m256.527 328.74c5.742 0 11.514-4.526 14.019-9.683 9.375-28.652 28.901-52.998 55.005-68.613 40.371-24.375 65.449-68.613 65.449-115.444 0-12.246-1.45-23.379-4.365-33.691-15.161-59.649-68.877-101.309-130.635-101.309v328.634c.183.004.344.106.527.106z" fill="#fabe2c"/><g id="literary_trivia_1_"><g><path d="m301 105c0 18.9-12.001 36-29.7 42.299 0 8.401-6.899 16.501-15.3 16.501-8.101 0-15-5.4-15-13.801 0-12.599 5.7-23.101 15-28.5 1.5-.899 3.3-1.8 5.099-2.401 6-2.098 9.901-7.798 9.901-14.099 0-8.401-6.599-15-15-15s-15 6.599-15 15-6.599 15-15 15-15-6.599-15-15c0-24.901 20.099-45 45-45s45 20.1 45 45.001z" fill="#474f54"/></g><g><circle cx="256" cy="195" fill="#474f54" r="15"/></g></g><g fill="#32393f"><path d="m271 195c0-8.284-6.716-15-15-15v30c8.284 0 15-6.716 15-15z"/><path d="m301 105c0 18.9-12.001 36-29.7 42.299 0 8.401-6.899 16.501-15.3 16.501v-42.3c1.5-.899 3.3-1.8 5.099-2.401 6-2.098 9.901-7.798 9.901-14.099 0-8.401-6.599-15-15-15v-30c24.901 0 45 20.099 45 45z"/></g></g></svg>