<?xml version="1.0" encoding="iso-8859-1"?>
<!-- Generator: Adobe Illustrator 19.0.0, SVG Export Plug-In . SVG Version: 6.00 Build 0)  -->
<svg version="1.1" id="Capa_1" xmlns="http://www.w3.org/2000/svg" xmlns:xlink="http://www.w3.org/1999/xlink" x="0px" y="0px"
	 viewBox="0 0 512 512" style="enable-background:new 0 0 512 512;" xml:space="preserve">
<g>
	<path style="fill:#FDBA6D;" d="M465.269,512H46.731c-22.613,0-40.944-18.331-40.944-40.944V203.007h500.425v268.049
		C506.212,493.669,487.881,512,465.269,512z"/>
	<path style="fill:#FDBA6D;" d="M233.176,8.432L5.788,203.007h500.425L278.824,8.432C265.685-2.811,246.315-2.811,233.176,8.432z"/>
</g>
<path style="opacity:0.1;enable-background:new    ;" d="M233.176,8.432L5.788,203.007h500.425L278.824,8.432
	C265.685-2.811,246.315-2.811,233.176,8.432z"/>
<polygon style="opacity:0.15;enable-background:new    ;" points="256,357.504 5.788,203.007 506.212,203.007 "/>
<path style="opacity:0.05;enable-background:new    ;" d="M46.731,512h418.537c22.613,0,40.944-18.331,40.944-40.944V203.007
	L20.794,502.734C27.856,508.523,36.887,512,46.731,512z"/>
<path style="fill:#E5E5E5;" d="M98.437,92.82v167.394L256,357.504l157.563-97.289V92.82c0-14.851-12.039-26.889-26.889-26.889
	H125.326C110.476,65.931,98.437,77.97,98.437,92.82z"/>
<path style="opacity:0.1;enable-background:new    ;" d="M246.213,329.263L98.437,238.017v22.197L256,357.504l157.563-97.289
	v-22.197l-147.776,91.246C259.788,332.967,252.212,332.967,246.213,329.263z"/>
<g>
	<path style="fill:#445258;" d="M333.401,250.532H193.605c-4.142,0-7.5-3.358-7.5-7.5s3.358-7.5,7.5-7.5H333.4
		c4.142,0,7.5,3.358,7.5,7.5C340.901,247.174,337.543,250.532,333.401,250.532z"/>
	<path style="fill:#445258;" d="M305.833,289.143h-84.66c-4.142,0-7.5-3.358-7.5-7.5s3.358-7.5,7.5-7.5h84.66
		c4.142,0,7.5,3.358,7.5,7.5S309.975,289.143,305.833,289.143z"/>
	<path style="fill:#445258;" d="M178.599,161.713c-4.142,0-7.5-3.358-7.5-7.5v-12.848c0-4.142,3.358-7.5,7.5-7.5s7.5,3.358,7.5,7.5
		v12.848C186.099,158.355,182.741,161.713,178.599,161.713z"/>
	<path style="fill:#445258;" d="M333.401,161.713c-4.142,0-7.5-3.358-7.5-7.5v-12.848c0-4.142,3.358-7.5,7.5-7.5s7.5,3.358,7.5,7.5
		v12.848C340.901,158.355,337.543,161.713,333.401,161.713z"/>
	<path style="fill:#445258;" d="M256,171.58c-9.988,0-19.487-4.326-26.06-11.869c-2.722-3.123-2.396-7.86,0.726-10.582
		s7.86-2.397,10.582,0.726c3.725,4.273,9.102,6.724,14.752,6.724c5.651,0,11.028-2.451,14.752-6.724
		c2.721-3.123,7.458-3.448,10.582-0.726c3.122,2.721,3.448,7.459,0.726,10.582C275.487,167.253,265.988,171.58,256,171.58z"/>
</g>
<path style="opacity:0.05;enable-background:new    ;" d="M256,357.504L20.794,502.734C27.856,508.523,36.887,512,46.731,512
	h418.537c9.844,0,18.875-3.477,25.938-9.266L256,357.504z"/>
<g>
</g>
<g>
</g>
<g>
</g>
<g>
</g>
<g>
</g>
<g>
</g>
<g>
</g>
<g>
</g>
<g>
</g>
<g>
</g>
<g>
</g>
<g>
</g>
<g>
</g>
<g>
</g>
<g>
</g>
</svg>
