<svg height="514pt" viewBox="-32 0 514 514.44361" width="514pt" xmlns="http://www.w3.org/2000/svg"><path d="m450.359375 450.136719c0 35.515625-28.789063 64.308593-64.304687 64.308593-35.515626 0-64.304688-28.792968-64.304688-64.308593 0-35.511719 28.789062-64.304688 64.304688-64.304688 35.515624 0 64.304687 28.792969 64.304687 64.304688zm0 0" fill="#f85566"/><path d="m386.054688 482.289062c-29.886719 0-54.835938-20.558593-62.023438-48.226562-1.351562 5.175781-2.28125 10.496094-2.28125 16.074219 0 35.464843 28.839844 64.308593 64.304688 64.308593 35.464843 0 64.304687-28.84375 64.304687-64.308593 0-5.578125-.933594-10.898438-2.28125-16.074219-7.1875 27.667969-32.136719 48.226562-62.023437 48.226562zm0 0" fill="#c84f61"/><path d="m193.136719 450.136719c0 35.515625-28.789063 64.308593-64.304688 64.308593s-64.304687-28.792968-64.304687-64.308593c0-35.511719 28.789062-64.304688 64.304687-64.304688s64.304688 28.792969 64.304688 64.304688zm0 0" fill="#35c9fc"/><path d="m386.054688 353.679688c-26.589844 0-48.230469-21.636719-48.230469-48.230469v-257.21875c0-26.589844 21.640625-48.230469 48.230469-48.230469 26.589843 0 48.230468 21.640625 48.230468 48.230469v257.21875c0 26.59375-21.640625 48.230469-48.230468 48.230469zm0 0" fill="#f85566"/><path d="m386.054688 321.527344c-26.589844 0-48.230469-21.640625-48.230469-48.230469v32.152344c0 26.59375 21.640625 48.230469 48.230469 48.230469 26.589843 0 48.230468-21.636719 48.230468-48.230469v-32.152344c0 26.589844-21.640625 48.230469-48.230468 48.230469zm0 0" fill="#c84f61"/><path d="m128.832031 353.679688c-26.589843 0-48.226562-21.636719-48.226562-48.230469v-64.304688c0-26.589843 21.636719-48.226562 48.226562-48.226562h32.152344c17.734375 0 32.152344-14.421875 32.152344-32.15625v-16.074219c0-26.589844-21.636719-48.230469-48.226563-48.230469s-48.230468 21.640625-48.230468 48.230469-21.636719 48.230469-48.230469 48.230469c-26.589844 0-48.226563-21.640625-48.226563-48.230469 0-79.789062 64.898438-144.6875 144.6875-144.6875 79.785156 0 144.6875 64.898438 144.6875 144.6875v16.074219c0 65.464843-49.195312 119.675781-112.535156 127.617187v17.070313c0 26.59375-21.640625 48.230469-48.230469 48.230469zm0 0" fill="#35c9fc"/><g fill="#00adfe"><path d="m128.832031 482.289062c-29.886719 0-54.835937-20.558593-62.023437-48.226562-1.347656 5.175781-2.28125 10.496094-2.28125 16.074219 0 35.464843 28.839844 64.308593 64.304687 64.308593 35.464844 0 64.304688-28.84375 64.304688-64.308593 0-5.578125-.929688-10.898438-2.28125-16.074219-7.1875 27.667969-32.136719 48.226562-62.023438 48.226562zm0 0"/><path d="m96.679688 144.6875c0-26.589844 21.640624-48.230469 48.230468-48.230469 23.566406 0 43.164063 17.011719 47.328125 39.386719.546875-2.328125.898438-4.742188.898438-7.234375v-16.074219c0-26.589844-21.636719-48.230468-48.226563-48.230468s-48.230468 21.640624-48.230468 48.230468-21.636719 48.226563-48.230469 48.226563c-22.519531 0-41.332031-15.574219-46.621094-36.492188-.945313 6.6875-1.605469 13.472657-1.605469 20.417969 0 26.589844 21.636719 48.230469 48.226563 48.230469 26.59375 0 48.230469-21.640625 48.230469-48.230469zm0 0"/><path d="m177.0625 256.226562v17.070313c0 26.589844-21.640625 48.230469-48.230469 48.230469-26.589843 0-48.226562-21.640625-48.226562-48.230469v32.152344c0 26.59375 21.636719 48.230469 48.226562 48.230469 26.589844 0 48.230469-21.636719 48.230469-48.230469v-17.085938c63.339844-7.925781 112.535156-62.136719 112.535156-127.617187v-16.058594c0-2.605469-.257812-5.144531-.386718-7.71875-3.988282 61.65625-51.523438 111.667969-112.148438 119.257812zm0 0"/></g><path d="m369.976562 434.0625h32.15625v32.152344h-32.15625zm0 0" fill="#fff"/><path d="m112.757812 434.0625h32.152344v32.152344h-32.152344zm0 0" fill="#fff"/></svg>