<svg id="Capa_1" enable-background="new 0 0 510.343 510.343" height="512" viewBox="0 0 510.343 510.343" width="512" xmlns="http://www.w3.org/2000/svg" xmlns:xlink="http://www.w3.org/1999/xlink"><linearGradient id="lg1"><stop offset="0" stop-color="#ffe177"/><stop offset=".5725" stop-color="#feb137"/><stop offset="1" stop-color="#fe646f"/></linearGradient><linearGradient id="SVGID_1_" gradientUnits="userSpaceOnUse" x1="153.267" x2="324.449" xlink:href="#lg1" y1="343.762" y2="343.762"/><linearGradient id="SVGID_2_" gradientUnits="userSpaceOnUse" x1="110.247" x2="400.096" y1="444.238" y2="444.238"><stop offset="0" stop-color="#537983"/><stop offset="1" stop-color="#3e5959"/></linearGradient><linearGradient id="SVGID_3_" gradientUnits="userSpaceOnUse" x1="205.764" x2="401.221" y1="444.238" y2="444.238"><stop offset="0" stop-color="#537983"/><stop offset="1" stop-color="#384949"/></linearGradient><linearGradient id="SVGID_4_" gradientUnits="userSpaceOnUse" x1="-19.829" x2="142.199" xlink:href="#lg1" y1="135.921" y2="135.921"/><linearGradient id="SVGID_5_" gradientUnits="userSpaceOnUse" x1="360.171" x2="528.362" xlink:href="#lg1" y1="135.921" y2="135.921"/><linearGradient id="SVGID_6_" gradientUnits="userSpaceOnUse" x1="84.63" x2="464.223" xlink:href="#lg1" y1="170.541" y2="170.541"/><linearGradient id="SVGID_7_" gradientUnits="userSpaceOnUse" x1="55.772" x2="417.953" xlink:href="#lg1" y1="170.541" y2="170.541"/><linearGradient id="SVGID_8_" gradientUnits="userSpaceOnUse" x1="161.242" x2="349.101" y1="444.238" y2="444.238"><stop offset="0" stop-color="#f9f3f1"/><stop offset=".5725" stop-color="#efe2dd"/><stop offset="1" stop-color="#cdbfba"/></linearGradient><linearGradient id="lg2"><stop offset="0" stop-color="#fdb4ba"/><stop offset=".5725" stop-color="#bd80e1"/><stop offset="1" stop-color="#9857bd"/></linearGradient><linearGradient id="SVGID_9_" gradientUnits="userSpaceOnUse" x1="155.171" x2="355.171" xlink:href="#lg2" y1="147.601" y2="147.601"/><linearGradient id="SVGID_10_" gradientUnits="userSpaceOnUse" x1="116.672" x2="325.632" xlink:href="#lg2" y1="173.253" y2="173.253"/><g><path d="m211.069 421.279v-155.034c0-17.63 14.292-31.923 31.923-31.923h24.359c17.63 0 31.923 14.292 31.923 31.923v155.035c0 17.63-14.292 31.923-31.923 31.923h-24.359c-17.63-.001-31.923-14.293-31.923-31.924z" fill="url(#SVGID_1_)"/><path d="m367.806 510.343h-225.27c-17.833 0-32.29-14.457-32.29-32.29v-67.631c0-17.833 14.457-32.29 32.29-32.29h225.27c17.833 0 32.29 14.457 32.29 32.29v67.631c0 17.833-14.457 32.29-32.29 32.29z" fill="url(#SVGID_2_)"/><path d="m367.806 378.132h-40.02c17.833 0 32.29 14.457 32.29 32.29v67.631c0 17.833-14.457 32.29-32.29 32.29h40.02c17.833 0 32.29-14.457 32.29-32.29v-67.631c0-17.833-14.457-32.29-32.29-32.29z" fill="url(#SVGID_3_)"/><path d="m46.107 245.583c-4.911 0-9.896-.977-14.726-2.978-14.415-5.971-23.369-19.372-23.369-34.973 0-6.903 5.597-12.5 12.5-12.5 6.904 0 12.5 5.597 12.5 12.5 0 7.97 6.074 11.105 7.936 11.876 1.862.772 8.373 2.849 14.008-2.787 10.545-10.545 10.545-27.704 0-38.25l-16.8-16.8c-22.062-22.061-34.212-51.395-34.212-82.596 0-29.123 23.693-52.816 52.816-52.816s52.816 23.693 52.816 52.816v10.096c0 6.903-5.597 12.5-12.5 12.5-6.904 0-12.5-5.597-12.5-12.5v-10.096c0-15.338-12.478-27.816-27.816-27.816s-27.816 12.478-27.816 27.816c0 24.523 9.55 47.579 26.891 64.919l16.8 16.8c20.293 20.293 20.293 53.312 0 73.605-7.336 7.336-16.783 11.184-26.528 11.184z" fill="url(#SVGID_4_)"/><path d="m464.235 245.583c4.911 0 9.896-.977 14.726-2.978 14.415-5.971 23.369-19.372 23.369-34.973 0-6.903-5.597-12.5-12.5-12.5-6.904 0-12.5 5.597-12.5 12.5 0 7.97-6.074 11.105-7.936 11.876-1.862.772-8.373 2.849-14.008-2.787-10.545-10.545-10.545-27.704 0-38.25l16.8-16.8c22.063-22.063 34.213-51.396 34.213-82.597 0-29.123-23.693-52.816-52.816-52.816s-52.816 23.693-52.816 52.816v10.096c0 6.903 5.597 12.5 12.5 12.5 6.904 0 12.5-5.597 12.5-12.5v-10.095c0-15.338 12.478-27.816 27.816-27.816s27.816 12.478 27.816 27.816c0 24.523-9.55 47.579-26.891 64.919l-16.8 16.8c-20.293 20.293-20.293 53.312 0 73.605 7.335 7.336 16.783 11.184 26.527 11.184z" fill="url(#SVGID_5_)"/><path d="m255.171 341.082c-94.188 0-170.541-76.354-170.541-170.541v-143.372c0-15.005 12.164-27.169 27.169-27.169h286.745c15.005 0 27.169 12.164 27.169 27.169v143.372c0 94.188-76.354 170.541-170.542 170.541z" fill="url(#SVGID_6_)"/><path d="m398.544 0h-40.02c15.005 0 27.169 12.164 27.169 27.169v143.372c0 87.417-65.775 159.459-150.531 169.366 6.565.767 13.239 1.175 20.01 1.175 94.187 0 170.541-76.354 170.541-170.541v-143.372c0-15.005-12.164-27.169-27.169-27.169z" fill="url(#SVGID_7_)"/><path d="m335.146 483.413h-159.949c-7.707 0-13.955-6.248-13.955-13.955v-50.441c0-7.707 6.248-13.955 13.955-13.955h159.949c7.707 0 13.955 6.248 13.955 13.955v50.441c0 7.707-6.248 13.955-13.955 13.955z" fill="url(#SVGID_8_)"/><g><path d="m277.594 65.209 17.348 35.152 38.792 5.637c20.51 2.98 28.699 28.185 13.858 42.651l-28.07 27.362 6.626 38.635c3.503 20.427-17.937 36.004-36.281 26.36l-34.697-18.241-34.697 18.241c-18.344 9.644-39.785-5.933-36.281-26.36l6.626-38.635-28.07-27.362c-14.841-14.466-6.652-39.671 13.858-42.651l38.792-5.637 17.348-35.152c9.175-18.585 35.676-18.585 44.848 0z" fill="url(#SVGID_9_)"/><path d="m333.735 105.997-23.564-3.424v.028c0 55.228-44.772 100-100 100-8.072 0-15.919-.963-23.437-2.769l-2.541 14.813c-3.503 20.427 17.937 36.004 36.281 26.36l34.697-18.241 34.697 18.241c18.344 9.644 39.785-5.933 36.281-26.36l-6.626-38.635 28.07-27.362c14.841-14.466 6.651-39.671-13.858-42.651z" fill="url(#SVGID_10_)"/></g></g></svg>